<?xml version="1.0" encoding="UTF-8"?>
<svg id="Layer_1" data-name="Layer 1" xmlns="http://www.w3.org/2000/svg" viewBox="0 0 38.41 30">
  <defs>
    <style>
      .cls-1 {
        fill: #00171a;
        stroke-width: 0px;
      }
    </style>
  </defs>
  <path class="cls-1" d="M1.17,5.15h10.23c.5,1.65,2.06,2.81,3.8,2.81s3.28-1.16,3.8-2.81h18.25c.64,0,1.17-.53,1.17-1.17s-.53-1.17-1.17-1.17h-18.25c-.5-1.65-2.06-2.81-3.8-2.81s-3.28,1.16-3.8,2.81H1.17C.53,2.82,0,3.33,0,3.98s.53,1.17,1.17,1.17ZM15.2,2.34c.9,0,1.64.73,1.64,1.64s-.73,1.64-1.64,1.64-1.64-.73-1.64-1.64.73-1.64,1.64-1.64Z"/>
  <path class="cls-1" d="M37.24,13.81h-10.23c-.5-1.65-2.06-2.81-3.8-2.81s-3.28,1.16-3.8,2.81H1.17C.53,13.81,0,14.33,0,14.98s.53,1.17,1.17,1.17h18.25c.5,1.65,2.06,2.81,3.8,2.81s3.28-1.16,3.8-2.81h10.23c.64,0,1.17-.53,1.17-1.17s-.53-1.17-1.17-1.17ZM23.21,16.62c-.9,0-1.64-.73-1.64-1.64s.73-1.64,1.64-1.64,1.64.73,1.64,1.64-.73,1.64-1.64,1.64Z"/>
  <path class="cls-1" d="M1.17,27.15h10.23c.5,1.65,2.06,2.81,3.8,2.81s3.28-1.16,3.8-2.81h18.25c.64,0,1.17-.53,1.17-1.17s-.53-1.17-1.17-1.17h-18.25c-.5-1.65-2.06-2.81-3.8-2.81s-3.28,1.16-3.8,2.81H1.17C.53,24.82,0,25.33,0,25.98s.53,1.17,1.17,1.17ZM15.2,24.34c.9,0,1.64.73,1.64,1.64s-.73,1.64-1.64,1.64-1.64-.73-1.64-1.64.73-1.64,1.64-1.64Z"/>
</svg>