<?xml version="1.0" encoding="UTF-8"?>
<svg id="svg2" xmlns="http://www.w3.org/2000/svg" xmlns:svg="http://www.w3.org/2000/svg" xmlns:sodipodi="http://sodipodi.sourceforge.net/DTD/sodipodi-0.dtd" xmlns:rdf="http://www.w3.org/1999/02/22-rdf-syntax-ns#" xmlns:inkscape="http://www.inkscape.org/namespaces/inkscape" xmlns:dc="http://purl.org/dc/elements/1.1/" xmlns:cc="http://creativecommons.org/ns#" version="1.1" viewBox="0 0 51 42.4">
  <!-- Generator: Adobe Illustrator 29.0.1, SVG Export Plug-In . SVG Version: 2.1.0 Build 192)  -->
  <defs>
    <style>
      .st0 {
        fill: none;
        stroke: #80858c;
        stroke-linejoin: round;
      }
    </style>
  </defs>
  <sodipodi:namedview id="namedview30" bordercolor="#666666" borderopacity="1" gridtolerance="10" guidetolerance="10" inkscape:current-layer="svg2" inkscape:cx="601.80919" inkscape:cy="236.02069" inkscape:pageopacity="0" inkscape:pageshadow="2" inkscape:window-height="876" inkscape:window-maximized="1" inkscape:window-width="1535" inkscape:window-x="65" inkscape:window-y="24" inkscape:zoom="0.37249375" objecttolerance="10" pagecolor="#ffffff" showgrid="false"/>
  <path id="path4627" class="st0" d="M38.4.5l-.7,3.4c-.7.1-1.4.3-2.1.6l-2.4-2.4-2.8,2.2,1.9,2.9c-.4.6-.8,1.2-1,1.9h-3.5s-.4,3.5-.4,3.5l3.4.7c.1.7.3,1.4.6,2.1l-2.5,2.4,2.2,2.8,2.9-1.9c.6.4,1.2.8,1.9,1v3.5s3.5.4,3.5.4l.7-3.4c.7-.1,1.4-.3,2.1-.6l2.4,2.5,2.8-2.2-1.9-2.9c.4-.6.8-1.2,1-1.9h3.5s.4-3.5.4-3.5l-3.4-.7c-.1-.7-.3-1.4-.6-2.1l2.5-2.4-2.2-2.8-2.9,1.9c-.6-.4-1.2-.8-1.9-1V.9s-3.5-.4-3.5-.4h0ZM39,8.7c.1,0,.2,0,.3,0,1.8.2,3.1,1.8,2.9,3.6s-1.8,3.1-3.6,2.9c-1.8-.2-3.1-1.8-2.9-3.6.2-1.7,1.6-2.9,3.3-2.9h0ZM13.6,9l-.5,4.7c-1,.3-1.9.6-2.7,1.1l-3.7-3-3.4,3.4,3,3.7c-.5.8-.9,1.8-1.1,2.7l-4.7.5v4.9l4.7.5c.3,1,.6,1.9,1.1,2.7l-3,3.7,3.4,3.4,3.7-3c.8.5,1.8.9,2.7,1.1l.5,4.7h4.9l.5-4.7c1-.3,1.9-.6,2.7-1.1l3.7,3,3.4-3.4-3-3.7c.5-.8.9-1.8,1.1-2.7l4.7-.5v-4.9l-4.7-.5c-.3-1-.6-1.9-1.1-2.7l3-3.7-3.4-3.4-3.7,3c-.8-.5-1.8-.9-2.7-1.1l-.5-4.7h-4.9,0ZM16.1,20.1c2.5,0,4.5,2,4.5,4.5s-2,4.5-4.5,4.5-4.5-2-4.5-4.5,2-4.5,4.5-4.5h0ZM38.7,25.1l-.5,2.5c-.5,0-1,.2-1.5.5l-1.7-1.8-1.9,1.6,1.3,2.1c-.3.4-.5.9-.7,1.4h-2.4s-.3,2.6-.3,2.6l2.4.5c0,.5.2,1,.4,1.5l-1.7,1.8,1.6,2,2-1.4c.4.3.8.6,1.3.7v2.5l2.5.3.5-2.5c.5,0,1-.2,1.5-.4l1.7,1.8,1.9-1.6-1.3-2.1c.3-.4.5-.9.7-1.4h2.4s.3-2.6.3-2.6l-2.4-.5c0-.5-.2-1-.4-1.5l1.7-1.8-1.6-2-2,1.4c-.4-.3-.9-.6-1.3-.7v-2.5s-2.5-.3-2.5-.3h0ZM39.1,31.1c0,0,.2,0,.2,0,1.3.1,2.2,1.3,2.1,2.6s-1.3,2.3-2.5,2.1-2.2-1.3-2.1-2.6c.1-1.2,1.1-2.2,2.3-2.2h0Z" inkscape:connector-curvature="0"/>
</svg>