<?xml version="1.0" encoding="UTF-8"?>
<svg id="Layer_1" data-name="Layer 1" xmlns="http://www.w3.org/2000/svg" viewBox="0 0 25 30">
  <defs>
    <style>
      .cls-1 {
        fill: #f4b17a;
      }
    </style>
  </defs>
  <path class="cls-1" d="M17.58,14.37c-.2-.19-.52-.17-.71.04l-3.88,4.3v-8.7c0-.28-.22-.5-.5-.5s-.5.22-.5.5v8.7l-3.88-4.3c-.19-.21-.5-.22-.71-.04-.21.19-.22.5-.04.71l4.75,5.26s0,0,0,0c.04.04.08.07.12.09.01,0,.02.02.04.03.06.03.13.04.2.04s.14-.02.2-.04c.01,0,.02-.02.04-.03.05-.03.09-.05.12-.09,0,0,0,0,0,0l4.75-5.26c.19-.21.17-.52-.04-.71Z"/>
  <path class="cls-1" d="M2.83,26.09v-8.09c0-1.45-.42-2.52-1.55-3.01,1.14-.48,1.55-1.56,1.55-3.01V3.9c0-1.66,1.11-2.87,2.39-2.87h2.14V0h-2.14C3.52,0,1.8,1.55,1.8,3.9v8.09c0,1.28-.59,2.49-1.8,2.49v1.04c1.21,0,1.8,1.21,1.8,2.49v8.09c0,2.35,1.73,3.91,3.42,3.91h2.14v-1.04h-2.14c-1.28,0-2.39-1.24-2.39-2.87Z"/>
  <path class="cls-1" d="M23.2,11.99V3.9c0-2.35-1.73-3.9-3.42-3.9h-2.14v1.04h2.14c1.28,0,2.39,1.21,2.39,2.87v8.09c0,1.45.42,2.52,1.56,3.01-1.14.48-1.56,1.55-1.56,3.01v8.09c0,1.63-1.11,2.87-2.39,2.87h-2.14v1.04h2.14c1.69,0,3.42-1.55,3.42-3.91v-8.09c0-1.28.59-2.49,1.8-2.49v-1.04c-1.21,0-1.8-1.21-1.8-2.49Z"/>
</svg>