<svg width="20" height="32" viewBox="0 0 20 32" fill="none" xmlns="http://www.w3.org/2000/svg">
<g clip-path="url(#clip0_599_1175)">
<path d="M9.85484 30.5161C14.478 30.5161 18.2258 26.7683 18.2258 22.1451C18.2258 17.522 14.478 13.7742 9.85484 13.7742C5.23168 13.7742 1.48387 17.522 1.48387 22.1451C1.48387 26.7683 5.23168 30.5161 9.85484 30.5161Z" stroke="#F4B17A" stroke-width="2"/>
<path d="M9.85484 30.5161C14.478 30.5161 18.2258 26.7683 18.2258 22.1451C18.2258 17.522 14.478 13.7742 9.85484 13.7742C5.23168 13.7742 1.48387 17.522 1.48387 22.1451C1.48387 26.7683 5.23168 30.5161 9.85484 30.5161Z" stroke="#F4B17A" stroke-width="2"/>
<path d="M9.85483 25.2129C11.4743 25.2129 12.7871 23.9001 12.7871 22.2806C12.7871 20.6612 11.4743 19.3484 9.85483 19.3484C8.23539 19.3484 6.92258 20.6612 6.92258 22.2806C6.92258 23.9001 8.23539 25.2129 9.85483 25.2129Z" stroke="#F4B17A" stroke-width="2"/>
<path d="M16.8419 8.46131C16.8419 4.60969 13.7161 1.48389 9.86452 1.48389C6.0129 1.48389 2.87742 4.60969 2.87742 8.46131" stroke="#F4B17A" stroke-width="2"/>
<path d="M16.8419 8.46118V13.9192" stroke="#F4B17A" stroke-width="2"/>
<path d="M2.87742 8.46118V9.85473" stroke="#F4B17A" stroke-width="2"/>
</g>
<defs>
<clipPath id="clip0_599_1175">
<rect width="20" height="32" fill="white"/>
</clipPath>
</defs>
</svg>
