<svg width="30" height="30" viewBox="0 0 30 30" fill="none" xmlns="http://www.w3.org/2000/svg">
<g clip-path="url(#clip0_590_535)">
<path d="M29 15C29 22.7329 22.7329 29 15 29C7.26713 29 1 22.7329 1 15C1 7.26713 7.26713 1 15 1C22.7329 1 29 7.26713 29 15Z" stroke="#020C19" stroke-width="2"/>
<path d="M29 15C29 22.7329 22.7329 29 15 29C7.26713 29 1 22.7329 1 15C1 7.26713 7.26713 1 15 1C22.7329 1 29 7.26713 29 15Z" stroke="white" stroke-opacity="0.5" stroke-width="2"/>
<path d="M9.61328 21.3203H8.80859V9.76953H9.61328V21.3203Z" fill="#020C19"/>
<path d="M9.61328 21.3203H8.80859V9.76953H9.61328V21.3203Z" stroke="#020C19"/>
<path d="M9.61328 21.3203H8.80859V9.76953H9.61328V21.3203Z" stroke="white" stroke-opacity="0.5"/>
<path d="M14.0664 20.2031V20.7031H14.5664H17.4375C19.6273 20.7031 21.0348 19.8626 21.8812 18.7618C22.7093 17.6848 22.9648 16.4064 22.9648 15.5508C22.9648 14.1859 22.5287 12.887 21.5777 11.9278C20.6239 10.9656 19.205 10.3984 17.3438 10.3984H14.5664H14.0664V10.8984V20.2031ZM13.2617 9.76953H17.6367C19.8281 9.76953 21.3594 10.5477 22.3467 11.6345C23.3431 12.7313 23.8164 14.1771 23.8164 15.5508C23.8164 18.5057 21.5124 21.332 17.6602 21.332H13.2617V9.76953Z" fill="#020C19"/>
<path d="M14.0664 20.2031V20.7031H14.5664H17.4375C19.6273 20.7031 21.0348 19.8626 21.8812 18.7618C22.7093 17.6848 22.9648 16.4064 22.9648 15.5508C22.9648 14.1859 22.5287 12.887 21.5777 11.9278C20.6239 10.9656 19.205 10.3984 17.3438 10.3984H14.5664H14.0664V10.8984V20.2031ZM13.2617 9.76953H17.6367C19.8281 9.76953 21.3594 10.5477 22.3467 11.6345C23.3431 12.7313 23.8164 14.1771 23.8164 15.5508C23.8164 18.5057 21.5124 21.332 17.6602 21.332H13.2617V9.76953Z" stroke="#020C19"/>
<path d="M14.0664 20.2031V20.7031H14.5664H17.4375C19.6273 20.7031 21.0348 19.8626 21.8812 18.7618C22.7093 17.6848 22.9648 16.4064 22.9648 15.5508C22.9648 14.1859 22.5287 12.887 21.5777 11.9278C20.6239 10.9656 19.205 10.3984 17.3438 10.3984H14.5664H14.0664V10.8984V20.2031ZM13.2617 9.76953H17.6367C19.8281 9.76953 21.3594 10.5477 22.3467 11.6345C23.3431 12.7313 23.8164 14.1771 23.8164 15.5508C23.8164 18.5057 21.5124 21.332 17.6602 21.332H13.2617V9.76953Z" stroke="white" stroke-opacity="0.5"/>
<path d="M9.89453 6.65625C9.89453 7.02786 9.58783 7.33984 9.21094 7.33984C8.83404 7.33984 8.52734 7.02786 8.52734 6.65625C8.52734 6.28464 8.83404 5.97266 9.21094 5.97266C9.58783 5.97266 9.89453 6.28464 9.89453 6.65625Z" fill="#020C19"/>
<path d="M9.89453 6.65625C9.89453 7.02786 9.58783 7.33984 9.21094 7.33984C8.83404 7.33984 8.52734 7.02786 8.52734 6.65625C8.52734 6.28464 8.83404 5.97266 9.21094 5.97266C9.58783 5.97266 9.89453 6.28464 9.89453 6.65625Z" stroke="#020C19"/>
<path d="M9.89453 6.65625C9.89453 7.02786 9.58783 7.33984 9.21094 7.33984C8.83404 7.33984 8.52734 7.02786 8.52734 6.65625C8.52734 6.28464 8.83404 5.97266 9.21094 5.97266C9.58783 5.97266 9.89453 6.28464 9.89453 6.65625Z" stroke="white" stroke-opacity="0.5"/>
</g>
<defs>
<clipPath id="clip0_590_535">
<rect width="30" height="30" fill="white"/>
</clipPath>
</defs>
</svg>
