<svg xmlns="http://www.w3.org/2000/svg" viewBox="0 0 50 50"><circle cx="25" cy="25" r="25" fill="#fff"/><path d="M20.46 23.76s-.09-.06-.13-.1l-2-2c-.37-.37-.24-1.55.78-2.57.71-.71 1.49-.96 1.98-.96.18 0 .43.03.59.19l2 2s.05.07.07.11l2.73 2.73c.34-.74.53-1.51.53-2.25 0-1.06-.36-2.06-1.11-2.8l-2-2c-.71-.71-1.71-1.11-2.8-1.11-1.47 0-3 .69-4.2 1.88-2.18 2.18-2.52 5.25-.77 6.99l2 2c.71.71 1.71 1.11 2.8 1.11.75 0 1.52-.19 2.25-.53l-2.7-2.7zm13.44 2.36l-2-2c-1.27-1.27-3.24-1.43-5.05-.59l2.42 2.42c.08.08.15.17.21.26.08.03.16.07.21.12l2 2c.37.37.25 1.55-.77 2.57-.71.71-1.49.96-1.98.96-.18 0-.43-.03-.59-.19l-2-2a.528.528 0 01-.12-.21c-.09-.07-.18-.13-.26-.22l-2.42-2.42c-.84 1.82-.68 3.79.59 5.05l2 2c.71.71 1.71 1.11 2.8 1.11 1.47 0 3-.69 4.19-1.88 1.24-1.24 1.89-2.78 1.89-4.19 0-1.06-.36-2.06-1.11-2.8zm-13.37-5.6c-.68.68-.68 1.77 0 2.45l5.86 5.86c.67.68 1.77.68 2.45 0 .67-.68.67-1.77 0-2.45l-5.86-5.86c-.68-.68-1.77-.67-2.45 0z" fill="#1e120e"/></svg>