<svg width="22" height="32" viewBox="0 0 22 32" fill="none" xmlns="http://www.w3.org/2000/svg">
<path d="M11.1699 1.69995C16.6938 1.69995 20.6699 5.67609 20.6699 11.2C20.6699 5.71381 16.6561 1.69995 11.1699 1.69995ZM11.1699 1.69995C5.64606 1.69995 1.66992 5.67609 1.66992 11.2C1.66992 5.71381 5.68378 1.69995 11.1699 1.69995ZM12.3268 28.8162C12.0761 29.1641 11.8479 29.4752 11.6483 29.744C12.8273 28.1483 15.0176 25.0647 16.9419 21.6588C16.5501 22.3543 16.1471 23.0362 15.7436 23.695C14.5018 25.7221 13.2593 27.5224 12.3268 28.8162ZM5.398 21.6589C7.3222 25.0647 9.51258 28.1483 10.6915 29.744C10.492 29.4752 10.2638 29.1641 10.0131 28.8162C9.08057 27.5224 7.83801 25.7221 6.59629 23.695C6.19271 23.0362 5.78979 22.3543 5.398 21.6589Z" fill="#020C19"/>
<path d="M11.1699 1.69995C16.6938 1.69995 20.6699 5.67609 20.6699 11.2C20.6699 5.71381 16.6561 1.69995 11.1699 1.69995ZM11.1699 1.69995C5.64606 1.69995 1.66992 5.67609 1.66992 11.2C1.66992 5.71381 5.68378 1.69995 11.1699 1.69995ZM12.3268 28.8162C12.0761 29.1641 11.8479 29.4752 11.6483 29.744C12.8273 28.1483 15.0176 25.0647 16.9419 21.6588C16.5501 22.3543 16.1471 23.0362 15.7436 23.695C14.5018 25.7221 13.2593 27.5224 12.3268 28.8162ZM5.398 21.6589C7.3222 25.0647 9.51258 28.1483 10.6915 29.744C10.492 29.4752 10.2638 29.1641 10.0131 28.8162C9.08057 27.5224 7.83801 25.7221 6.59629 23.695C6.19271 23.0362 5.78979 22.3543 5.398 21.6589Z" stroke="#020C19"/>
<path d="M11.1699 1.69995C16.6938 1.69995 20.6699 5.67609 20.6699 11.2C20.6699 5.71381 16.6561 1.69995 11.1699 1.69995ZM11.1699 1.69995C5.64606 1.69995 1.66992 5.67609 1.66992 11.2C1.66992 5.71381 5.68378 1.69995 11.1699 1.69995ZM12.3268 28.8162C12.0761 29.1641 11.8479 29.4752 11.6483 29.744C12.8273 28.1483 15.0176 25.0647 16.9419 21.6588C16.5501 22.3543 16.1471 23.0362 15.7436 23.695C14.5018 25.7221 13.2593 27.5224 12.3268 28.8162ZM5.398 21.6589C7.3222 25.0647 9.51258 28.1483 10.6915 29.744C10.492 29.4752 10.2638 29.1641 10.0131 28.8162C9.08057 27.5224 7.83801 25.7221 6.59629 23.695C6.19271 23.0362 5.78979 22.3543 5.398 21.6589Z" stroke="white" stroke-opacity="0.5"/>
<mask id="path-2-inside-1_590_408" fill="white">
<path d="M11.1699 9.94995V13.7V9.94995Z"/>
</mask>
<path d="M12.1699 9.94995C12.1699 9.39767 11.7222 8.94995 11.1699 8.94995C10.6176 8.94995 10.1699 9.39767 10.1699 9.94995H12.1699ZM10.1699 13.7C10.1699 14.2522 10.6176 14.7 11.1699 14.7C11.7222 14.7 12.1699 14.2522 12.1699 13.7H10.1699ZM10.1699 9.94995V13.7H12.1699V9.94995H10.1699Z" fill="#020C19" mask="url(#path-2-inside-1_590_408)"/>
<path d="M12.1699 9.94995C12.1699 9.39767 11.7222 8.94995 11.1699 8.94995C10.6176 8.94995 10.1699 9.39767 10.1699 9.94995H12.1699ZM10.1699 13.7C10.1699 14.2522 10.6176 14.7 11.1699 14.7C11.7222 14.7 12.1699 14.2522 12.1699 13.7H10.1699ZM10.1699 9.94995V13.7H12.1699V9.94995H10.1699Z" fill="white" fill-opacity="0.5" mask="url(#path-2-inside-1_590_408)"/>
</svg>
