<svg width="30" height="30" viewBox="0 0 30 30" fill="none" xmlns="http://www.w3.org/2000/svg">
<g clip-path="url(#clip0_590_529)">
<path d="M29 15C29 22.7329 22.7329 29 15 29C7.26713 29 1 22.7329 1 15C1 7.26713 7.26713 1 15 1C22.7329 1 29 7.26713 29 15Z" stroke="#020C19" stroke-width="2"/>
<path d="M10.1133 21.8203H8.30859V9.26953H10.1133V21.8203Z" fill="#020C19"/>
<path d="M12.7617 9.26953H17.6367C22.2773 9.26953 24.3164 12.5859 24.3164 15.5508C24.3164 18.7734 21.7969 21.832 17.6602 21.832H12.7617V9.26953ZM14.5664 20.2031H17.4375C21.5273 20.2031 22.4648 17.0977 22.4648 15.5508C22.4648 13.0312 20.8594 10.8984 17.3438 10.8984H14.5664V20.2031Z" fill="#020C19"/>
<path d="M10.3945 6.65625C10.3945 7.30078 9.86719 7.83984 9.21094 7.83984C8.55469 7.83984 8.02734 7.30078 8.02734 6.65625C8.02734 6.01172 8.55469 5.47266 9.21094 5.47266C9.86719 5.47266 10.3945 6.01172 10.3945 6.65625Z" fill="#020C19"/>
</g>
<defs>
<clipPath id="clip0_590_529">
<rect width="30" height="30" fill="white"/>
</clipPath>
</defs>
</svg>
