<?xml version="1.0" encoding="UTF-8"?>
<svg id="Layer_1" data-name="Layer 1" xmlns="http://www.w3.org/2000/svg" viewBox="0 0 38.41 30">
  <defs>
    <style>
      .cls-1 {
        fill: #00171a;
        stroke-width: 0px;
      }
    </style>
  </defs>
  <path class="cls-1" d="M1.17,4.78h10.51c.37,1.6,1.8,2.81,3.51,2.81s3.14-1.2,3.51-2.81h18.53c.45,0,.8-.36.8-.8s-.36-.8-.8-.8h-18.53c-.37-1.6-1.8-2.81-3.51-2.81s-3.14,1.2-3.51,2.81H1.17c-.45,0-.8.36-.8.8s.36.8.8.8ZM15.2,1.97c1.1,0,2,.9,2,2s-.9,2-2,2-2-.9-2-2,.9-2,2-2ZM37.23,14.2h-6.5c-.37-1.6-1.8-2.81-3.51-2.81s-3.14,1.2-3.51,2.81H1.17c-.45,0-.8.36-.8.8s.36.8.8.8h22.53c.37,1.6,1.8,2.81,3.51,2.81s3.14-1.2,3.51-2.81h6.5c.45,0,.8-.36.8-.8s-.36-.8-.8-.8h0ZM27.21,17c-1.1,0-2-.9-2-2s.9-2,2-2,2,.9,2,2-.9,2-2,2Z"/>
  <path class="cls-1" d="M1.17,5.15h10.23c.5,1.65,2.06,2.81,3.8,2.81s3.28-1.16,3.8-2.81h18.25c.64,0,1.17-.53,1.17-1.17s-.53-1.17-1.17-1.17h-18.25c-.5-1.65-2.06-2.81-3.8-2.81s-3.28,1.16-3.8,2.81H1.17c-.64,0-1.17.53-1.17,1.17s.53,1.17,1.17,1.17ZM15.2,2.34c.9,0,1.64.73,1.64,1.64s-.73,1.64-1.64,1.64-1.64-.73-1.64-1.64.73-1.64,1.64-1.64ZM37.23,13.83h-6.22c-.5-1.65-2.06-2.81-3.8-2.81s-3.28,1.16-3.8,2.81H1.17c-.64,0-1.17.53-1.17,1.17s.53,1.17,1.17,1.17h22.25c.5,1.65,2.06,2.81,3.8,2.81s3.28-1.16,3.8-2.81h6.22c.64,0,1.17-.53,1.17-1.17s-.53-1.17-1.17-1.17h0ZM27.21,16.64c-.9,0-1.64-.73-1.64-1.64s.73-1.64,1.64-1.64,1.64.73,1.64,1.64-.73,1.64-1.64,1.64ZM37.23,24.85H14.98c-.5-1.65-2.06-2.81-3.8-2.81s-3.28,1.16-3.8,2.81H1.17c-.64,0-1.17.53-1.17,1.17s.53,1.17,1.17,1.17h6.22c.5,1.65,2.06,2.81,3.8,2.81s3.28-1.16,3.8-2.81h22.25c.64,0,1.17-.53,1.17-1.17s-.53-1.17-1.17-1.17h0ZM11.18,27.66c-.9,0-1.64-.73-1.64-1.64s.73-1.64,1.64-1.64,1.64.73,1.64,1.64-.73,1.64-1.64,1.64Z"/>
  <path class="cls-1" d="M37.23,25.22H14.7c-.37-1.6-1.8-2.81-3.51-2.81s-3.14,1.2-3.51,2.81H1.17c-.45,0-.8.36-.8.8s.36.8.8.8h6.5c.37,1.6,1.8,2.81,3.51,2.81s3.14-1.2,3.51-2.81h22.53c.45,0,.8-.36.8-.8s-.36-.8-.8-.8h0ZM11.18,28.03c-1.1,0-2-.9-2-2s.9-2,2-2,2,.9,2,2-.9,2-2,2Z"/>
</svg>