<?xml version="1.0" encoding="UTF-8"?>
<svg id="Layer_1" data-name="Layer 1" xmlns="http://www.w3.org/2000/svg" viewBox="0 0 1366 60">
  <defs>
    <style>
      .cls-1 {
        fill: #b2b9ba;
        stroke-width: 0px;
      }
    </style>
  </defs>
  <path class="cls-1" d="M255.1,45.24c-.48-5.47-4.01-10.06-8.89-12.05,6.8-4.72,3.04-16.45-5.4-16.14-8.43-.3-12.2,11.42-5.4,16.14-5.08,2.06-9.03,7.66-8.88,12.73.05,1.51,2.55,1.47,2.81-.01h0c1.34-15.18,22.53-13.41,22.93-.3.01,2.12,3.08,1.74,2.82-.37ZM240.82,32.13c-7.98-.04-7.98-12.17,0-12.21,7.98.04,7.98,12.17,0,12.21Z"/>
  <path class="cls-1" d="M759.9,41.11v4.66c0,.38-.31.69-.69.69h-11.5c-.38,0-.69-.31-.69-.69v-11.5c0-.38.31-.69.69-.69h4.66c.38,0,.69.31.69.69v6.15h6.15c.38,0,.69.31.69.69ZM747.68,30.46h4.66c.38,0,.69-.31.69-.69v-6.15h6.15c.38,0,.69-.31.69-.69v-4.66c0-.38-.31-.69-.69-.69h-11.5c-.38,0-.69.31-.69.69v11.5c0,.38.31.69.69.69ZM775.22,33.62h-4.66c-.38,0-.69.31-.69.69v6.15h-6.15c-.38,0-.69.31-.69.69v4.66c0,.38.31.69.69.69h11.5c.38,0,.69-.31.69-.69v-11.5c0-.38-.31-.69-.69-.69ZM775.22,17.58h-11.5c-.38,0-.69.31-.69.69v4.66c0,.38.31.69.69.69h6.15v6.15c0,.38.31.69.69.69h4.66c.38,0,.69-.31.69-.69v-11.5c0-.38-.31-.69-.69-.69Z"/>
  <path class="cls-1" d="M529.05,20.47c0,1.6-1.29,2.89-2.89,2.89s-2.89-1.29-2.89-2.89,1.29-2.89,2.89-2.89,2.89,1.29,2.89,2.89ZM552.18,22.36v-3.78c0-.55-.45-1-1-1h-17.76c-.55,0-1,.45-1,1v3.78c0,.55.45,1,1,1h17.76c.55,0,1-.45,1-1ZM526.16,29.15c-1.6,0-2.89,1.29-2.89,2.89s1.29,2.89,2.89,2.89,2.89-1.29,2.89-2.89-1.29-2.89-2.89-2.89ZM552.18,33.93v-3.78c0-.55-.45-1-1-1h-17.76c-.55,0-1,.45-1,1v3.78c0,.55.45,1,1,1h17.76c.55,0,1-.45,1-1ZM526.16,40.71c-1.6,0-2.89,1.29-2.89,2.89s1.29,2.89,2.89,2.89,2.89-1.29,2.89-2.89-1.29-2.89-2.89-2.89ZM552.18,45.5v-3.78c0-.55-.45-1-1-1h-17.76c-.55,0-1,.45-1,1v3.78c0,.55.45,1,1,1h17.76c.55,0,1-.45,1-1Z"/>
  <path class="cls-1" d="M642.97,29.29h-16.07c-.55,0-1-.45-1-1v-9.71c0-.55.45-1,1-1h16.07c.55,0,1,.45,1,1v9.71c0,.55-.45,1-1,1ZM654.81,28.29v-9.71c0-.55-.45-1-1-1h-5.23c-.55,0-1,.45-1,1v9.71c0,.55.45,1,1,1h5.23c.55,0,1-.45,1-1ZM633.12,45.5v-11.62c0-.55-.45-1-1-1h-5.23c-.55,0-1,.45-1,1v11.62c0,.55.45,1,1,1h5.23c.55,0,1-.45,1-1ZM654.81,45.5v-11.62c0-.55-.45-1-1-1h-16.07c-.55,0-1,.45-1,1v11.62c0,.55.45,1,1,1h16.07c.55,0,1-.45,1-1Z"/>
  <g>
    <path class="cls-1" d="M903.22,37.28h-10.45l-5.2,5.63-5.2-5.63h-10.87c-1.34,0-2.44,1.1-2.44,2.44v4.88c0,1.34,1.1,2.44,2.44,2.44h31.73c1.34,0,2.44-1.1,2.44-2.44v-4.88c0-1.34-1.1-2.44-2.44-2.44ZM898.71,45.23c-.67,0-1.22-.55-1.22-1.22s.55-1.22,1.22-1.22,1.22.55,1.22,1.22-.55,1.22-1.22,1.22ZM902.37,45.23c-.67,0-1.22-.55-1.22-1.22s.55-1.22,1.22-1.22,1.22.55,1.22,1.22-.55,1.22-1.22,1.22Z"/>
    <rect class="cls-1" x="880.63" y="17.04" width="13.86" height="3.12"/>
    <polygon class="cls-1" points="897.86 30.27 894.5 30.27 894.5 22.83 880.63 22.83 880.63 30.27 877.27 30.27 887.57 41.41 897.86 30.27"/>
  </g>
  <path class="cls-1" d="M1008.48,40.23c-1.63-.02-2.91-.37-3.85-1.06-.94-.69-1.43-1.77-1.43-3.18v-3.91c0-.9-.28-1.54-.84-1.93-.56-.38-1.36-.57-2.4-.57v-1.94c1.04-.02,1.85-.21,2.4-.58s.84-1,.84-1.89v-3.93c0-1.42.49-2.47,1.46-3.16.97-.69,2.24-1.04,3.8-1.04v1.91c-.92.04-1.64.24-2.17.62s-.78,1-.78,1.87v3.83c0,1.82-.97,2.9-2.9,3.24v.16c1.93.34,2.9,1.42,2.9,3.24v3.91c0,.87.28,1.51.79,1.89.51.38,1.24.58,2.18.6v1.91ZM1026.37,37.19h-7.81c-.29,1.54-1.13,2.47-1.86,2.98-1.18.84-2.7,1.26-4.5,1.26h-1.21v-4.24h-1.31v4.26h-1.23c-1.88-.03-3.42-.47-4.56-1.31-.97-.71-1.57-1.7-1.79-2.95h-7.8c-1.36,0-2.47,1.11-2.47,2.47l-.02,4.91c0,1.36,1.11,2.47,2.47,2.47h32.06c1.36,0,2.47-1.11,2.47-2.47l.02-4.91c0-1.36-1.11-2.47-2.47-2.47ZM1021.8,45.21c-.68,0-1.23-.55-1.23-1.23s.55-1.23,1.23-1.23,1.23.55,1.23,1.23-.55,1.23-1.23,1.23ZM1025.5,45.21c-.68,0-1.23-.55-1.23-1.23s.55-1.23,1.23-1.23,1.23.55,1.23,1.23-.55,1.23-1.23,1.23ZM1012.21,40.23v-1.91c.92-.04,1.64-.24,2.17-.62.52-.38.76-1.03.76-1.89v-3.85c0-1.82.97-2.9,2.9-3.24v-.16c-1.93-.34-2.9-1.42-2.9-3.24v-3.88c0-.87-.26-1.49-.77-1.87-.51-.38-1.24-.58-2.18-.6v-1.91c1.63.02,2.91.37,3.85,1.06.94.69,1.41,1.74,1.41,3.16v3.88c0,.9.28,1.55.84,1.93s1.36.57,2.4.57v1.94c-1.04.02-1.85.21-2.4.58-.56.37-.84,1-.84,1.89v3.96c0,1.42-.47,2.49-1.44,3.18-.97.69-2.24,1.04-3.8,1.04Z"/>
  <path class="cls-1" d="M157.19,32.04c0,.32-.12.63-.36.87l-13.76,13.76c-.48.48-1.27.48-1.75,0-.48-.48-.48-1.27,0-1.75l12.89-12.89-12.89-12.89c-.48-.48-.48-1.27,0-1.75.48-.48,1.27-.48,1.75,0l13.76,13.76c.24.24.36.56.36.87Z"/>
  <path class="cls-1" d="M33.09,32.04c0-.32.12-.63.36-.87l13.76-13.76c.48-.48,1.27-.48,1.75,0,.48.48.48,1.27,0,1.75l-12.89,12.89,12.89,12.89c.48.48.48,1.27,0,1.75-.48.48-1.27.48-1.75,0l-13.76-13.76c-.24-.24-.36-.56-.36-.87Z"/>
  <path class="cls-1" d="M351.75,43.18l-9.32-8.04c1.83-2.09,2.87-4.87,2.69-7.86-.18-2.91-1.48-5.58-3.67-7.51-2.19-1.93-4.99-2.89-7.9-2.71-6.01.37-10.59,5.56-10.22,11.57.36,5.78,5.18,10.24,10.89,10.24.23,0,.45,0,.68-.02,2.3-.14,4.4-1,6.08-2.33l7.7,9.07s1.92,2.61,3.53.82c1.52-1.67-.47-3.23-.47-3.23ZM334.71,35.77c-4.31.27-8.03-3.02-8.3-7.33-.27-4.31,3.02-8.03,7.33-8.3.17-.01.33-.02.5-.02,1.91,0,3.73.69,5.17,1.96,1.57,1.38,2.5,3.3,2.63,5.38h0c.27,4.31-3.02,8.03-7.33,8.3Z"/>
  <g id="c14_house" data-name="c14 house">
    <path class="cls-1" d="M1108.06,46.28s-.03.76.71.76c.92,0,8.53-.01,8.53-.01v-6.99s-.11-1.15,1.01-1.15h3.54c1.32,0,1.24,1.15,1.24,1.15l-.02,6.97h8.35c.94,0,.9-.94.9-.94v-12.9l-11.78-10.47-12.5,10.47s0,13.11,0,13.11Z"/>
    <path class="cls-1" d="M1103.46,32.2s1.06,1.96,3.38,0l13.83-11.7,12.97,11.63c2.68,1.93,3.68,0,3.68,0l-16.65-15.08-17.21,15.16Z"/>
    <polygon class="cls-1" points="1133.31 20.47 1129.98 20.47 1129.99 24.51 1133.31 27.33 1133.31 20.47"/>
  </g>
  <path class="cls-1" d="M1221.47,47.04c0-6-9-15-15-15,6,0,15-9,15-15,0,6,9,15,15,15-6,0-15,9-15,15Z"/>
  <path class="cls-1" d="M423.99,42.54c0-.83.68-1.5,1.5-1.5h33c.83,0,1.5.68,1.5,1.5v3c0,.83-.68,1.5-1.5,1.5h-33c-.83,0-1.5-.68-1.5-1.5v-3ZM429.99,33.54c0,.83.68,1.5,1.5,1.5h21c.83,0,1.5-.68,1.5-1.5v-3c0-.83-.68-1.5-1.5-1.5h-21c-.83,0-1.5.68-1.5,1.5v3ZM435.99,21.54c0,.83.68,1.5,1.5,1.5h9c.83,0,1.5-.68,1.5-1.5v-3c0-.83-.68-1.5-1.5-1.5h-9c-.83,0-1.5.68-1.5,1.5v3Z"/>
  <circle class="cls-1" cx="1327.04" cy="32.04" r="15"/>
</svg>