<?xml version="1.0" encoding="UTF-8"?>
<svg id="Layer_1" data-name="Layer 1" xmlns="http://www.w3.org/2000/svg" viewBox="0 0 30.02 30">
  <defs>
    <style>
      .cls-1 {
        fill: #fff;
        stroke-width: 0px;
      }
    </style>
  </defs>
  <path class="cls-1" d="M8.2,13.14c-.07-.04-.14-.09-.2-.14l-3-3c-.55-.55-.37-2.32,1.16-3.85.77-.84,1.83-1.36,2.97-1.45.32-.02.63.08.88.28l3,3c.04.05.08.1.11.16l4.09,4.09c.51-1.05.79-2.2.81-3.37.03-1.57-.57-3.08-1.67-4.2l-3-3C12.22.57,10.7-.03,9.13,0c-2.39.08-4.65,1.09-6.29,2.82C-.44,6.09-.95,10.7,1.67,13.31l3,3c1.12,1.09,2.64,1.69,4.2,1.66,1.17-.02,2.32-.28,3.37-.79l-4.05-4.04ZM28.35,16.69l-3-3c-1.9-1.9-4.86-2.14-7.58-.88l3.6,3.6c.12.12.23.25.32.4.12.04.22.1.31.18l3,3c.55.55.37,2.32-1.16,3.85-.78.85-1.85,1.37-3,1.45-.32.02-.63-.08-.88-.28l-3-3c-.08-.09-.14-.2-.18-.31-.14-.1-.27-.21-.4-.32l-3.6-3.6c-1.26,2.73-1.02,5.68.88,7.58l3,3c1.12,1.09,2.64,1.69,4.2,1.66,2.39-.08,4.65-1.09,6.29-2.82,1.74-1.64,2.77-3.9,2.86-6.29.03-1.57-.57-3.08-1.67-4.2ZM8.29,8.28c-1.01,1.02-1.01,2.66,0,3.67l8.78,8.78c1.01,1.01,2.66,1.01,3.67,0s1.01-2.66,0-3.67h0l-8.78-8.78c-1.02-1.01-2.66-1.01-3.67,0Z"/>
</svg>