<svg width="41" height="32" viewBox="0 0 41 32" fill="none" xmlns="http://www.w3.org/2000/svg">
<path d="M20.8037 30.994C18.1944 31.0539 15.645 30.674 13.2756 29.5643C7.64706 26.935 3.75806 22.6161 1.22871 17.0075C0.928783 16.3377 0.918786 15.6878 1.22871 15.018C3.75806 9.38944 7.66709 5.06055 13.3057 2.43122C15.1852 1.55144 17.1946 1.15155 19.2741 1.03158C21.8934 0.881619 24.4328 1.26152 26.8422 2.26126C29.5415 3.38098 31.8909 5.04056 33.9504 7.12003C36.2298 9.42944 37.9994 12.0688 39.369 14.998C39.6789 15.6679 39.6889 16.3177 39.369 16.9775C36.7897 22.4461 33.0406 26.795 27.502 29.4343C25.6425 30.3241 23.663 30.784 21.6135 30.934C21.3436 30.954 21.0737 30.964 20.8137 30.9839L20.8037 30.994ZM29.9414 15.9978C29.8215 10.5292 25.7725 6.40021 20.2539 6.34023C14.8953 6.29024 10.5363 10.6591 10.5963 16.0078C10.6563 21.4764 14.7552 25.6053 20.2638 25.6653C25.6225 25.7153 29.9414 21.3564 29.9314 15.9978H29.9414Z" stroke="#020C19" stroke-width="2" stroke-miterlimit="10"/>
<path d="M20.8037 30.994C18.1944 31.0539 15.645 30.674 13.2756 29.5643C7.64706 26.935 3.75806 22.6161 1.22871 17.0075C0.928783 16.3377 0.918786 15.6878 1.22871 15.018C3.75806 9.38944 7.66709 5.06055 13.3057 2.43122C15.1852 1.55144 17.1946 1.15155 19.2741 1.03158C21.8934 0.881619 24.4328 1.26152 26.8422 2.26126C29.5415 3.38098 31.8909 5.04056 33.9504 7.12003C36.2298 9.42944 37.9994 12.0688 39.369 14.998C39.6789 15.6679 39.6889 16.3177 39.369 16.9775C36.7897 22.4461 33.0406 26.795 27.502 29.4343C25.6425 30.3241 23.663 30.784 21.6135 30.934C21.3436 30.954 21.0737 30.964 20.8137 30.9839L20.8037 30.994ZM29.9414 15.9978C29.8215 10.5292 25.7725 6.40021 20.2539 6.34023C14.8953 6.29024 10.5363 10.6591 10.5963 16.0078C10.6563 21.4764 14.7552 25.6053 20.2638 25.6653C25.6225 25.7153 29.9414 21.3564 29.9314 15.9978H29.9414Z" stroke="white" stroke-opacity="0.5" stroke-width="2" stroke-miterlimit="10"/>
</svg>
