<?xml version="1.0" encoding="UTF-8"?>
<svg id="IISD_logo" xmlns="http://www.w3.org/2000/svg" version="1.1" viewBox="0 0 353 126">
  <!-- Generator: Adobe Illustrator 29.0.1, SVG Export Plug-In . SVG Version: 2.1.0 Build 192)  -->
  <defs>
    <style>
      .st0 {
        fill: #020c19;
      }
    </style>
  </defs>
  <g>
    <path class="st0" d="M241.5,54.9c-7.2-1.3-10.1-3-10.1-8.4s4.7-9.1,12.5-9.1,13,2.5,19.9,7.7l5.3-12.2c-7.8-6-15.2-9-26.4-9-17,0-28.4,9.5-28.4,23.1s7.6,19.6,21.2,22.2l12,2.3c7.3,1.3,8.9,4.9,8.8,8-.1,4.4-3.5,8-11.7,8-8.6-.2-17.8-4.1-24.5-9.7l-5.4,12.5c6.6,6.6,21.3,11,29.1,11,17.8,0,29.5-9.4,29.5-23.6s-8.2-18-22.4-21.1l-9.4-1.7Z"/>
    <rect class="st0" x="157.8" y="25.6" width="15.8" height="74.2"/>
    <rect class="st0" x="186.6" y="25.6" width="15.8" height="74.2"/>
    <path class="st0" d="M313.3,85.4c13.2,0,23.7-10,23.7-22.9s-10.5-22.4-23.7-22.4h-13.1v45.3s13.1,0,13.1,0ZM313.3,25.6c22.8,0,39.7,15.6,39.7,36.8s-16.9,37.5-39.7,37.5h-28.9V25.6h28.9Z"/>
  </g>
  <g>
    <path class="st0" d="M37.3,103.1c-19.4-12.4-27.5-37.4-18.1-59.2,9.5-21.8,33.3-32.9,55.6-27.1l6.2-14.2C50.9-6.4,18,8.3,5.2,37.8c-12.8,29.5-1.2,63.6,26,79.5l6.1-14.2Z"/>
    <path class="st0" d="M95,8.8l-6.2,14.2c19.2,12.4,27.3,37.4,17.9,59-9.4,21.7-33.1,32.8-55.4,27.2l-6.2,14.2c30,8.9,62.8-5.8,75.6-35.3,12.9-29.5,1.3-63.4-25.7-79.3"/>
  </g>
</svg>