<svg class="c-header__logo-svg" id="IISD_logo" xmlns="http://www.w3.org/2000/svg" viewBox="0 0 409.3 173.8">
    <g class="c-header__logo-strapline">
      <rect x="158.5" y="127.9" style="fill:#093266" width="2.6" height="14.5"></rect>
      <path style="fill:#093266" d="M173.5,136.9v5.6H171V137c0-1.8-0.9-2.8-2.5-2.8c-0.9,0-1.8,0.5-2.6,1.5v6.7h-2.5v-10.1h2.5v0.8
		c0.9-0.7,1.9-1.2,3.1-1.2C171.7,132,173.5,134,173.5,136.9"></path>
      <path style="fill:#093266" d="M183.2,142.3c-1.1,0.3-1.6,0.4-2.5,0.4c-2.4,0-3.9-1.6-3.9-4.2v-4.1h-2.3v-2.1h2.3v-3.7h2.5v3.7h3.7v2.1h-3.7
		v4.1c0,1.3,0.7,1.9,1.9,1.9c0.6,0,1.2-0.1,1.7-0.3L183.2,142.3z"></path>
      <path style="fill:#093266" d="M186.6,136.5h5.3c-0.2-1.4-1.1-2.3-2.6-2.3C187.8,134.2,186.9,135.2,186.6,136.5 M194.4,138.4L194.4,138.4
		h-7.7c0.3,1.3,1.2,2.2,2.9,2.2c1,0,1.7-0.3,2-0.9h2.6c-0.6,1.9-2.4,3-4.7,3c-3.2,0-5.4-2.3-5.4-5.3c0-3,2.1-5.3,5.4-5.3
		c2.8,0,4.9,2.1,4.9,5.1C194.4,137.6,194.4,138,194.4,138.4"></path>
      <path style="fill:#093266" d="M198.8,133.6c0.9-0.9,2.1-1.5,3.7-1.5v2.3c-1.6,0.1-2.8,0.6-3.7,1.7v6.3h-2.5v-10.1h2.5V133.6z"></path>
      <path style="fill:#093266" d="M214,136.9v5.6h-2.5V137c0-1.8-0.9-2.8-2.5-2.8c-0.9,0-1.8,0.5-2.6,1.5v6.7H204v-10.1h2.5v0.8
		c0.9-0.7,1.9-1.2,3.1-1.2C212.3,132,214,134,214,136.9"></path>
      <path style="fill:#093266" d="M223.9,139.1v-3.4c-0.7-1-1.7-1.4-2.7-1.4c-1.7,0-3,1.5-3,3.2c0,1.7,1.3,3.1,3,3.1
		C222.2,140.6,223.2,140.2,223.9,139.1 M226.3,142.4h-2.5v-0.7c-0.8,0.6-1.9,0.9-3.1,0.9c-2.8,0-5.1-2.3-5.1-5.3
		c0-2.9,2.3-5.3,5.1-5.3c1.2,0,2.3,0.3,3.1,0.9v-0.7h2.5V142.4z"></path>
      <path style="fill:#093266" d="M236.4,142.3c-1.1,0.3-1.6,0.4-2.5,0.4c-2.4,0-3.9-1.6-3.9-4.2v-4.1h-2.3v-2.1h2.3v-3.7h2.5v3.7h3.7v2.1h-3.7
		v4.1c0,1.3,0.7,1.9,1.9,1.9c0.6,0,1.2-0.1,1.7-0.3L236.4,142.3z"></path>
      <path style="fill:#093266" d="M240.7,142.4h-2.5v-10.1h2.5V142.4z M238,128.7c0-0.9,0.7-1.5,1.5-1.5c0.9,0,1.5,0.6,1.5,1.5
		c0,0.8-0.7,1.5-1.5,1.5C238.7,130.2,238,129.5,238,128.7"></path>
      <path style="fill:#093266" d="M251,137.4c0-1.7-1.2-3-2.9-3c-1.7,0-2.9,1.3-2.9,3c0,1.7,1.2,3.1,2.9,3.1C249.9,140.5,251,139.1,251,137.4
		 M253.5,137.4c0,3.1-2.3,5.4-5.4,5.4c-3.1,0-5.4-2.3-5.4-5.4c0-3,2.3-5.3,5.4-5.3C251.2,132.1,253.5,134.4,253.5,137.4"></path>
      <path style="fill:#093266" d="M265.4,136.9v5.6h-2.5V137c0-1.8-0.9-2.8-2.5-2.8c-0.9,0-1.8,0.5-2.6,1.5v6.7h-2.5v-10.1h2.5v0.8
		c0.9-0.7,1.9-1.2,3.1-1.2C263.6,132,265.4,134,265.4,136.9"></path>
      <path style="fill:#093266" d="M275.3,139.1v-3.4c-0.7-1-1.7-1.4-2.7-1.4c-1.7,0-3,1.5-3,3.2c0,1.7,1.3,3.1,3,3.1
		C273.7,140.6,274.6,140.2,275.3,139.1 M277.8,142.4h-2.5v-0.7c-0.8,0.6-1.9,0.9-3.1,0.9c-2.8,0-5.1-2.3-5.1-5.3
		c0-2.9,2.3-5.3,5.1-5.3c1.2,0,2.3,0.3,3.1,0.9v-0.7h2.5V142.4z"></path>
      <rect x="280.2" y="127.3" style="fill:#093266" width="2.5" height="15.1"></rect>
      <rect x="291.2" y="127.9" style="fill:#093266" width="2.6" height="14.5"></rect>
      <path style="fill:#093266" d="M306.5,136.9v5.6H304V137c0-1.8-0.9-2.8-2.5-2.8c-0.9,0-1.8,0.5-2.6,1.5v6.7h-2.5v-10.1h2.5v0.8
		c0.9-0.7,1.9-1.2,3.1-1.2C304.7,132,306.5,134,306.5,136.9"></path>
      <path style="fill:#093266" d="M310.3,139.1c0.2,1.2,1.1,1.7,2.5,1.7c1.2,0,2-0.4,2-1.1c0-0.5-0.4-0.9-1.2-1.1l-2.2-0.4c-1.5-0.3-3-1.1-3-2.9
		c0-2,1.7-3.2,4.2-3.2c1.7,0,4.2,0.6,4.5,3.3l-2.3,0c-0.1-1-1-1.5-2.2-1.5c-1.2,0-1.8,0.5-1.8,1.1c0,0.5,0.3,1,1.4,1.2l1.9,0.3
		c1.5,0.3,3,1,3,2.9c0,2.2-1.9,3.3-4.4,3.3c-2.3,0-4.4-1-4.7-3.7L310.3,139.1z"></path>
      <path style="fill:#093266" d="M326.8,142.3c-1.1,0.3-1.6,0.4-2.5,0.4c-2.4,0-3.9-1.6-3.9-4.2v-4.1h-2.3v-2.1h2.3v-3.7h2.5v3.7h3.7v2.1h-3.7
		v4.1c0,1.3,0.7,1.9,1.9,1.9c0.6,0,1.2-0.1,1.7-0.3L326.8,142.3z"></path>
      <path style="fill:#093266" d="M331.1,142.4h-2.5v-10.1h2.5V142.4z M328.4,128.7c0-0.9,0.7-1.5,1.5-1.5c0.9,0,1.5,0.6,1.5,1.5
		c0,0.8-0.7,1.5-1.5,1.5C329.1,130.2,328.4,129.5,328.4,128.7"></path>
      <path style="fill:#093266" d="M341.4,142.3c-1.1,0.3-1.6,0.4-2.5,0.4c-2.4,0-3.9-1.6-3.9-4.2v-4.1h-2.3v-2.1h2.3v-3.7h2.5v3.7h3.7v2.1h-3.7
		v4.1c0,1.3,0.7,1.9,1.9,1.9c0.6,0,1.2-0.1,1.7-0.3L341.4,142.3z"></path>
      <path style="fill:#093266" d="M352.9,142.4h-2.5v-0.9c-0.9,0.7-1.9,1.2-3.1,1.2c-2.6,0-4.4-1.9-4.4-4.8v-5.6h2.5v5.4c0,1.8,0.9,2.8,2.5,2.8
		c0.9,0,1.9-0.5,2.6-1.5v-6.7h2.5V142.4z"></path>
      <path style="fill:#093266" d="M362.9,142.3c-1.1,0.3-1.6,0.4-2.5,0.4c-2.4,0-3.9-1.6-3.9-4.2v-4.1h-2.3v-2.1h2.3v-3.7h2.5v3.7h3.7v2.1h-3.7
		v4.1c0,1.3,0.7,1.9,1.9,1.9c0.6,0,1.2-0.1,1.7-0.3L362.9,142.3z"></path>
      <path style="fill:#093266" d="M366.3,136.5h5.3c-0.2-1.4-1.1-2.3-2.6-2.3C367.5,134.2,366.5,135.2,366.3,136.5 M374,138.4L374,138.4h-7.7
		c0.3,1.3,1.2,2.2,2.9,2.2c1,0,1.7-0.3,2-0.9h2.6c-0.6,1.9-2.4,3-4.7,3c-3.2,0-5.4-2.3-5.4-5.3c0-3,2.1-5.3,5.4-5.3
		c2.8,0,4.9,2.1,4.9,5.1C374.1,137.6,374.1,138,374,138.4"></path>
      <path style="fill:#093266" d="M390.1,132.4v2.1h-3.9v8h-2.5v-8h-2.8v-2.1h2.8v-1.8c0-2.6,1.6-4.3,4.1-4.3c0.7,0,1.6,0.1,2.3,0.3l-0.4,2.1
		c-0.5-0.1-1.1-0.2-1.5-0.2c-1.3,0-2.1,0.8-2.1,2v1.8H390.1z"></path>
      <path style="fill:#093266" d="M398.9,137.4c0-1.7-1.2-3-2.9-3c-1.7,0-2.9,1.3-2.9,3c0,1.7,1.2,3.1,2.9,3.1
		C397.7,140.5,398.9,139.1,398.9,137.4 M401.4,137.4c0,3.1-2.3,5.4-5.4,5.4c-3.1,0-5.4-2.3-5.4-5.4c0-3,2.3-5.3,5.4-5.3
		C399.1,132.1,401.4,134.4,401.4,137.4"></path>
      <path style="fill:#093266" d="M405.6,133.6c0.9-0.9,2.1-1.5,3.7-1.5v2.3c-1.6,0.1-2.8,0.6-3.7,1.7v6.3h-2.5v-10.1h2.5V133.6z"></path>
      <path style="fill:#093266" d="M168,158.5h-2.5c-0.2-1.5-1.2-2.4-3.2-2.4c-1.7,0-2.9,0.8-2.9,2.1c0,1.1,0.8,1.6,2.3,1.9l1.8,0.4
		c2.8,0.6,4.3,1.7,4.3,4c0,2.7-2.2,4.5-5.6,4.5c-3.6,0-6-1.9-6.2-5h2.5c0.3,1.7,1.7,2.8,3.8,2.8c1.8,0,2.8-0.7,2.8-2
		c0-0.8-0.5-1.5-2.1-1.8l-2.4-0.5c-2.8-0.5-4.1-2-4.1-4.1c0-2.7,2.2-4.5,5.4-4.5C164.6,153.9,167.6,155,168,158.5"></path>
      <path style="fill:#093266" d="M179.9,168.8h-2.5v-0.9c-0.9,0.7-1.9,1.2-3.1,1.2c-2.6,0-4.4-1.9-4.4-4.8v-5.6h2.5v5.4c0,1.8,0.9,2.8,2.5,2.8
		c0.9,0,1.9-0.5,2.6-1.5v-6.7h2.5V168.8z"></path>
      <path style="fill:#093266" d="M184,165.4c0.2,1.2,1.1,1.7,2.5,1.7c1.2,0,2-0.4,2-1.1c0-0.5-0.4-0.9-1.2-1.1l-2.2-0.4c-1.5-0.3-3-1.1-3-2.9
		c0-2,1.7-3.2,4.2-3.2c1.7,0,4.2,0.6,4.5,3.3l-2.3,0c-0.1-1-1-1.5-2.2-1.5c-1.2,0-1.8,0.5-1.8,1.1c0,0.5,0.3,1,1.4,1.2l1.9,0.3
		c1.5,0.3,3,1,3,2.9c0,2.2-1.9,3.3-4.4,3.3c-2.3,0-4.4-1-4.7-3.7L184,165.4z"></path>
      <path style="fill:#093266" d="M200.6,168.7c-1.1,0.3-1.6,0.4-2.5,0.4c-2.4,0-3.9-1.6-3.9-4.2v-4.1h-2.3v-2.1h2.3V155h2.5v3.7h3.7v2.1h-3.7
		v4.1c0,1.3,0.7,1.9,1.9,1.9c0.6,0,1.2-0.1,1.7-0.3L200.6,168.7z"></path>
      <path style="fill:#093266" d="M209.6,165.4V162c-0.7-1-1.7-1.4-2.7-1.4c-1.7,0-3,1.5-3,3.2c0,1.7,1.3,3.1,3,3.1
		C207.9,166.9,208.9,166.5,209.6,165.4 M212,168.8h-2.5v-0.7c-0.8,0.6-1.9,0.9-3.1,0.9c-2.8,0-5.1-2.3-5.1-5.3
		c0-2.9,2.3-5.3,5.1-5.3c1.2,0,2.3,0.3,3.1,0.9v-0.7h2.5V168.8z"></path>
      <path style="fill:#093266" d="M217.1,168.8h-2.5v-10.1h2.5V168.8z M214.3,155c0-0.9,0.7-1.5,1.5-1.5c0.9,0,1.5,0.6,1.5,1.5
		c0,0.8-0.7,1.5-1.5,1.5C215,156.5,214.3,155.9,214.3,155"></path>
      <path style="fill:#093266" d="M229.7,163.2v5.6h-2.5v-5.4c0-1.8-0.9-2.8-2.5-2.8c-0.9,0-1.8,0.5-2.6,1.5v6.7h-2.5v-10.1h2.5v0.8
		c0.9-0.7,1.9-1.2,3.1-1.2C227.9,158.4,229.7,160.3,229.7,163.2"></path>
      <path style="fill:#093266" d="M239.4,165.4V162c-0.7-1-1.7-1.4-2.7-1.4c-1.7,0-3,1.5-3,3.2c0,1.7,1.3,3.1,3,3.1
		C237.7,166.9,238.7,166.5,239.4,165.4 M241.9,168.8h-2.5v-0.7c-0.8,0.6-1.9,0.9-3.1,0.9c-2.8,0-5.1-2.3-5.1-5.3
		c0-2.9,2.3-5.3,5.1-5.3c1.2,0,2.3,0.3,3.1,0.9v-0.7h2.5V168.8z"></path>
      <path style="fill:#093266" d="M252.2,163.7c0-1.7-1.2-3.1-3-3.1c-1,0-2,0.4-2.7,1.4v3.5c0.7,1,1.7,1.4,2.7,1.4
		C251,166.9,252.2,165.4,252.2,163.7 M254.7,163.7c0,2.9-2.3,5.3-5.1,5.3c-1.2,0-2.3-0.3-3.1-0.9v0.7h-2.5v-15.1h2.5v5.8
		c0.8-0.6,1.9-0.9,3.1-0.9C252.4,158.4,254.7,160.8,254.7,163.7"></path>
      <rect x="256.5" y="153.6" style="fill:#093266" width="2.5" height="15.1"></rect>
      <path style="fill:#093266" d="M263.2,162.9h5.3c-0.2-1.4-1.1-2.3-2.6-2.3C264.4,160.5,263.5,161.6,263.2,162.9 M271,164.7L271,164.7h-7.7
		c0.3,1.3,1.2,2.2,2.9,2.2c1,0,1.7-0.3,2-0.9h2.6c-0.6,1.9-2.4,3-4.7,3c-3.2,0-5.4-2.3-5.4-5.3c0-3,2.1-5.3,5.4-5.3
		c2.8,0,4.9,2.1,4.9,5.1C271,163.9,271,164.3,271,164.7"></path>
      <path style="fill:#093266" d="M284,166.4c2.9,0,5.1-2.2,5.1-4.9c0-2.7-2.2-4.8-5.1-4.8h-2.9v9.8H284z M284,154.3c4.5,0,7.7,3,7.7,7.2
		c0,4.2-3.3,7.3-7.7,7.3h-5.4v-14.5H284z"></path>
      <path style="fill:#093266" d="M295.5,162.9h5.3c-0.2-1.4-1.1-2.3-2.6-2.3C296.7,160.5,295.8,161.6,295.5,162.9 M303.3,164.7L303.3,164.7
		h-7.7c0.3,1.3,1.2,2.2,2.9,2.2c1,0,1.7-0.3,2-0.9h2.6c-0.6,1.9-2.4,3-4.7,3c-3.2,0-5.4-2.3-5.4-5.3c0-3,2.1-5.3,5.4-5.3
		c2.8,0,4.9,2.1,4.9,5.1C303.3,163.9,303.3,164.3,303.3,164.7"></path>
      <polygon style="fill:#093266" points="310.4,168.8 308.2,168.8 303.6,158.7 306.2,158.7 309.3,165.6 312.4,158.7 315,158.7 	"></polygon>
      <path style="fill:#093266" d="M317.5,162.9h5.3c-0.2-1.4-1.1-2.3-2.6-2.3C318.7,160.5,317.8,161.6,317.5,162.9 M325.3,164.7L325.3,164.7
		h-7.7c0.3,1.3,1.2,2.2,2.9,2.2c1,0,1.7-0.3,2-0.9h2.6c-0.6,1.9-2.4,3-4.7,3c-3.2,0-5.4-2.3-5.4-5.3c0-3,2.1-5.3,5.4-5.3
		c2.8,0,4.9,2.1,4.9,5.1C325.3,163.9,325.3,164.3,325.3,164.7"></path>
      <rect x="327.3" y="153.6" style="fill:#093266" width="2.5" height="15.1"></rect>
      <path style="fill:#093266" d="M339.6,163.7c0-1.7-1.2-3-2.9-3c-1.7,0-2.9,1.3-2.9,3c0,1.7,1.2,3.1,2.9,3.1
		C338.4,166.8,339.6,165.5,339.6,163.7 M342,163.7c0,3.1-2.3,5.4-5.4,5.4c-3.1,0-5.4-2.3-5.4-5.4c0-3,2.3-5.3,5.4-5.3
		C339.7,158.4,342,160.7,342,163.7"></path>
      <path style="fill:#093266" d="M351.7,163.7c0-1.7-1.2-3.2-3-3.2c-1,0-2,0.4-2.7,1.4v3.5c0.7,1,1.7,1.4,2.7,1.4
		C350.5,166.9,351.7,165.4,351.7,163.7 M354.2,163.7c0,2.9-2.3,5.3-5.1,5.3c-1.2,0-2.3-0.3-3.1-0.9v5.8h-2.5v-15.1h2.5v0.7
		c0.8-0.6,1.9-0.9,3.1-0.9C351.9,158.4,354.2,160.8,354.2,163.7"></path>
      <path style="fill:#093266" d="M372.7,163.2v5.6h-2.5v-5.4c0-1.8-0.9-2.8-2.4-2.8c-0.8,0-1.6,0.4-2.3,1.4c0.1,0.4,0.1,0.8,0.1,1.2v5.6h-2.5
		v-5.4c0-1.8-0.9-2.8-2.4-2.8c-0.7,0-1.5,0.4-2.2,1.3v6.8h-2.5v-10.1h2.5v0.7c0.7-0.6,1.4-1,2.7-1c1.3,0,2.5,0.6,3.3,1.5
		c1.1-1,2.1-1.5,3.8-1.5C370.8,158.4,372.7,160.3,372.7,163.2"></path>
      <path style="fill:#093266" d="M376.8,162.9h5.3c-0.2-1.4-1.1-2.3-2.6-2.3C378,160.5,377.1,161.6,376.8,162.9 M384.6,164.7L384.6,164.7h-7.7
		c0.3,1.3,1.2,2.2,2.9,2.2c1,0,1.7-0.3,2-0.9h2.6c-0.6,1.9-2.4,3-4.7,3c-3.2,0-5.4-2.3-5.4-5.3c0-3,2.1-5.3,5.4-5.3
		c2.8,0,4.9,2.1,4.9,5.1C384.7,163.9,384.7,164.3,384.6,164.7"></path>
      <path style="fill:#093266" d="M396.6,163.2v5.6h-2.5v-5.4c0-1.8-0.9-2.8-2.5-2.8c-0.9,0-1.8,0.5-2.6,1.5v6.7h-2.5v-10.1h2.5v0.8
		c0.9-0.7,1.9-1.2,3.1-1.2C394.8,158.4,396.6,160.3,396.6,163.2"></path>
      <path style="fill:#093266" d="M406.4,168.7c-1.1,0.3-1.6,0.4-2.5,0.4c-2.4,0-3.9-1.6-3.9-4.2v-4.1h-2.3v-2.1h2.3V155h2.5v3.7h3.7v2.1h-3.7
		v4.1c0,1.3,0.7,1.9,1.9,1.9c0.6,0,1.2-0.1,1.7-0.3L406.4,168.7z"></path>
    </g>
    <g class="c-header__logo-acronym">
      <path style="fill:#093266" d="M241.5,54.9c-7.2-1.3-10.1-3-10.1-8.4c0-5.2,4.7-9.1,12.5-9.1c7.5,0,13,2.5,19.9,7.7l5.3-12.2
		c-7.8-6-15.2-9-26.4-9c-17,0-28.4,9.5-28.4,23.1c0,13.3,7.6,19.6,21.2,22.2l12,2.3c7.3,1.3,8.9,4.9,8.8,8c-0.1,4.4-3.5,8-11.7,8
		c-8.6-0.2-17.8-4.1-24.5-9.7l-5.4,12.5c6.6,6.6,21.3,11,29.1,11c17.8,0,29.5-9.4,29.5-23.6c0-12.4-8.2-18-22.4-21.1L241.5,54.9z"></path>
      <rect x="157.8" y="25.6" style="fill:#093266" width="15.8" height="74.2"></rect>
      <rect x="186.6" y="25.6" style="fill:#093266" width="15.8" height="74.2"></rect>
      <path style="fill:#093266" d="M313.3,85.4c13.2,0,23.7-10,23.7-22.9c0-12.4-10.5-22.4-23.7-22.4h-13.1v45.3H313.3z M313.3,25.6
		c22.8,0,39.7,15.6,39.7,36.8c0,21.6-16.9,37.5-39.7,37.5h-28.9V25.6H313.3z"></path>
    </g>
    <g class="c-header__logo-symbol">
      <path style="fill:#093266" d="M37.3,103.1C17.9,90.7,9.8,65.7,19.2,43.9c9.5-21.8,33.3-32.9,55.6-27.1L81,2.6c-30.1-9-63,5.7-75.8,35.2
		C-7.6,67.3,4,101.4,31.2,117.3L37.3,103.1z"></path>
      <path style="fill:#29C3EC" d="M95,8.8l-6.2,14.2c19.2,12.4,27.3,37.4,17.9,59c-9.4,21.7-33.1,32.8-55.4,27.2l-6.2,14.2
		c30,8.9,62.8-5.8,75.6-35.3C133.6,58.6,122,24.7,95,8.8"></path>
    </g>
  </svg>