<?xml version="1.0" encoding="UTF-8"?>
<svg id="IISD_logo" xmlns="http://www.w3.org/2000/svg" version="1.1" viewBox="0 0 409.3 173.8">
  <!-- Generator: Adobe Illustrator 29.0.1, SVG Export Plug-In . SVG Version: 2.1.0 Build 192)  -->
  <defs>
    <style>
      .st0 {
        fill: #020c19;
      }
    </style>
  </defs>
  <g>
    <rect class="st0" x="158.5" y="127.9" width="2.6" height="14.5"/>
    <path class="st0" d="M173.5,136.9v5.6h-2.5v-5.5c0-1.8-.9-2.8-2.5-2.8s-1.8.5-2.6,1.5v6.7h-2.5v-10.1h2.5v.8c.9-.7,1.9-1.2,3.1-1.2,2.7.1,4.5,2.1,4.5,5"/>
    <path class="st0" d="M183.2,142.3c-1.1.3-1.6.4-2.5.4-2.4,0-3.9-1.6-3.9-4.2v-4.1h-2.3v-2.1h2.3v-3.7h2.5v3.7h3.7v2.1h-3.7v4.1c0,1.3.7,1.9,1.9,1.9s1.2-.1,1.7-.3l.3,2.2Z"/>
    <path class="st0" d="M186.6,136.5h5.3c-.2-1.4-1.1-2.3-2.6-2.3s-2.4,1-2.7,2.3M194.4,138.4h-7.7c.3,1.3,1.2,2.2,2.9,2.2s1.7-.3,2-.9h2.6c-.6,1.9-2.4,3-4.7,3s-5.4-2.3-5.4-5.3,2.1-5.3,5.4-5.3,4.9,2.1,4.9,5.1v1.2"/>
    <path class="st0" d="M198.8,133.6c.9-.9,2.1-1.5,3.7-1.5v2.3c-1.6.1-2.8.6-3.7,1.7v6.3h-2.5v-10.1h2.5v1.3Z"/>
    <path class="st0" d="M214,136.9v5.6h-2.5v-5.5c0-1.8-.9-2.8-2.5-2.8s-1.8.5-2.6,1.5v6.7h-2.4v-10.1h2.5v.8c.9-.7,1.9-1.2,3.1-1.2,2.7.1,4.4,2.1,4.4,5"/>
    <path class="st0" d="M223.9,139.1v-3.4c-.7-1-1.7-1.4-2.7-1.4-1.7,0-3,1.5-3,3.2s1.3,3.1,3,3.1c1,0,2-.4,2.7-1.5M226.3,142.4h-2.5v-.7c-.8.6-1.9.9-3.1.9-2.8,0-5.1-2.3-5.1-5.3s2.3-5.3,5.1-5.3,2.3.3,3.1.9v-.7h2.5v10.2Z"/>
    <path class="st0" d="M236.4,142.3c-1.1.3-1.6.4-2.5.4-2.4,0-3.9-1.6-3.9-4.2v-4.1h-2.3v-2.1h2.3v-3.7h2.5v3.7h3.7v2.1h-3.7v4.1c0,1.3.7,1.9,1.9,1.9s1.2-.1,1.7-.3l.3,2.2Z"/>
    <path class="st0" d="M240.7,142.4h-2.5v-10.1h2.5v10.1ZM238,128.7c0-.9.7-1.5,1.5-1.5s1.5.6,1.5,1.5-.7,1.5-1.5,1.5-1.5-.7-1.5-1.5"/>
    <path class="st0" d="M251,137.4c0-1.7-1.2-3-2.9-3s-2.9,1.3-2.9,3,1.2,3.1,2.9,3.1,2.9-1.4,2.9-3.1M253.5,137.4c0,3.1-2.3,5.4-5.4,5.4s-5.4-2.3-5.4-5.4,2.3-5.3,5.4-5.3c3.1,0,5.4,2.3,5.4,5.3"/>
    <path class="st0" d="M265.4,136.9v5.6h-2.5v-5.5c0-1.8-.9-2.8-2.5-2.8s-1.8.5-2.6,1.5v6.7h-2.5v-10.1h2.5v.8c.9-.7,1.9-1.2,3.1-1.2,2.7.1,4.5,2.1,4.5,5"/>
    <path class="st0" d="M275.3,139.1v-3.4c-.7-1-1.7-1.4-2.7-1.4-1.7,0-3,1.5-3,3.2s1.3,3.1,3,3.1c1.1,0,2-.4,2.7-1.5M277.8,142.4h-2.5v-.7c-.8.6-1.9.9-3.1.9-2.8,0-5.1-2.3-5.1-5.3s2.3-5.3,5.1-5.3,2.3.3,3.1.9v-.7h2.5v10.2Z"/>
    <rect class="st0" x="280.2" y="127.3" width="2.5" height="15.1"/>
    <rect class="st0" x="291.2" y="127.9" width="2.6" height="14.5"/>
    <path class="st0" d="M306.5,136.9v5.6h-2.5v-5.5c0-1.8-.9-2.8-2.5-2.8s-1.8.5-2.6,1.5v6.7h-2.5v-10.1h2.5v.8c.9-.7,1.9-1.2,3.1-1.2,2.7.1,4.5,2.1,4.5,5"/>
    <path class="st0" d="M310.3,139.1c.2,1.2,1.1,1.7,2.5,1.7s2-.4,2-1.1-.4-.9-1.2-1.1l-2.2-.4c-1.5-.3-3-1.1-3-2.9s1.7-3.2,4.2-3.2,4.2.6,4.5,3.3h-2.3c-.1-1-1-1.5-2.2-1.5s-1.8.5-1.8,1.1.3,1,1.4,1.2l1.9.3c1.5.3,3,1,3,2.9s-1.9,3.3-4.4,3.3-4.4-1-4.7-3.7h2.3Z"/>
    <path class="st0" d="M326.8,142.3c-1.1.3-1.6.4-2.5.4-2.4,0-3.9-1.6-3.9-4.2v-4.1h-2.3v-2.1h2.3v-3.7h2.5v3.7h3.7v2.1h-3.7v4.1c0,1.3.7,1.9,1.9,1.9s1.2-.1,1.7-.3l.3,2.2Z"/>
    <path class="st0" d="M331.1,142.4h-2.5v-10.1h2.5v10.1ZM328.4,128.7c0-.9.7-1.5,1.5-1.5s1.5.6,1.5,1.5-.7,1.5-1.5,1.5-1.5-.7-1.5-1.5"/>
    <path class="st0" d="M341.4,142.3c-1.1.3-1.6.4-2.5.4-2.4,0-3.9-1.6-3.9-4.2v-4.1h-2.3v-2.1h2.3v-3.7h2.5v3.7h3.7v2.1h-3.7v4.1c0,1.3.7,1.9,1.9,1.9s1.2-.1,1.7-.3l.3,2.2Z"/>
    <path class="st0" d="M352.9,142.4h-2.5v-.9c-.9.7-1.9,1.2-3.1,1.2-2.6,0-4.4-1.9-4.4-4.8v-5.6h2.5v5.4c0,1.8.9,2.8,2.5,2.8s1.9-.5,2.6-1.5v-6.7h2.5v10.1h-.1Z"/>
    <path class="st0" d="M362.9,142.3c-1.1.3-1.6.4-2.5.4-2.4,0-3.9-1.6-3.9-4.2v-4.1h-2.3v-2.1h2.3v-3.7h2.5v3.7h3.7v2.1h-3.7v4.1c0,1.3.7,1.9,1.9,1.9s1.2-.1,1.7-.3l.3,2.2Z"/>
    <path class="st0" d="M366.3,136.5h5.3c-.2-1.4-1.1-2.3-2.6-2.3s-2.5,1-2.7,2.3M374,138.4h-7.7c.3,1.3,1.2,2.2,2.9,2.2s1.7-.3,2-.9h2.6c-.6,1.9-2.4,3-4.7,3s-5.4-2.3-5.4-5.3,2.1-5.3,5.4-5.3,4.9,2.1,4.9,5.1c.1.4.1.8,0,1.2"/>
    <path class="st0" d="M390.1,132.4v2.1h-3.9v8h-2.5v-8h-2.8v-2.1h2.8v-1.8c0-2.6,1.6-4.3,4.1-4.3s1.6,0,2.3.3l-.4,2.1c-.5-.1-1.1-.2-1.5-.2-1.3,0-2.1.8-2.1,2v1.8h4Z"/>
    <path class="st0" d="M398.9,137.4c0-1.7-1.2-3-2.9-3s-2.9,1.3-2.9,3,1.2,3.1,2.9,3.1,2.9-1.4,2.9-3.1M401.4,137.4c0,3.1-2.3,5.4-5.4,5.4s-5.4-2.3-5.4-5.4,2.3-5.3,5.4-5.3c3.1,0,5.4,2.3,5.4,5.3"/>
    <path class="st0" d="M405.6,133.6c.9-.9,2.1-1.5,3.7-1.5v2.3c-1.6.1-2.8.6-3.7,1.7v6.3h-2.5v-10.1h2.5v1.3Z"/>
    <path class="st0" d="M168,158.5h-2.5c-.2-1.5-1.2-2.4-3.2-2.4s-2.9.8-2.9,2.1.8,1.6,2.3,1.9l1.8.4c2.8.6,4.3,1.7,4.3,4s-2.2,4.5-5.6,4.5-6-1.9-6.2-5h2.5c.3,1.7,1.7,2.8,3.8,2.8s2.8-.7,2.8-2-.5-1.5-2.1-1.8l-2.4-.5c-2.8-.5-4.1-2-4.1-4.1s2.2-4.5,5.4-4.5,5.7,1.1,6.1,4.6"/>
    <path class="st0" d="M179.9,168.8h-2.5v-.9c-.9.7-1.9,1.2-3.1,1.2-2.6,0-4.4-1.9-4.4-4.8v-5.6h2.5v5.4c0,1.8.9,2.8,2.5,2.8s1.9-.5,2.6-1.5v-6.7h2.5v10.1h-.1Z"/>
    <path class="st0" d="M184,165.4c.2,1.2,1.1,1.7,2.5,1.7s2-.4,2-1.1-.4-.9-1.2-1.1l-2.2-.4c-1.5-.3-3-1.1-3-2.9s1.7-3.2,4.2-3.2,4.2.6,4.5,3.3h-2.3c-.1-1-1-1.5-2.2-1.5s-1.8.5-1.8,1.1.3,1,1.4,1.2l1.9.3c1.5.3,3,1,3,2.9s-1.9,3.3-4.4,3.3-4.4-1-4.7-3.7h2.3Z"/>
    <path class="st0" d="M200.6,168.7c-1.1.3-1.6.4-2.5.4-2.4,0-3.9-1.6-3.9-4.2v-4.1h-2.3v-2.1h2.3v-3.7h2.5v3.7h3.7v2.1h-3.7v4.1c0,1.3.7,1.9,1.9,1.9s1.2-.1,1.7-.3l.3,2.2Z"/>
    <path class="st0" d="M209.6,165.4v-3.4c-.7-1-1.7-1.4-2.7-1.4-1.7,0-3,1.5-3,3.2s1.3,3.1,3,3.1c1,0,2-.4,2.7-1.5M212,168.8h-2.5v-.7c-.8.6-1.9.9-3.1.9-2.8,0-5.1-2.3-5.1-5.3s2.3-5.3,5.1-5.3,2.3.3,3.1.9v-.7h2.5v10.2Z"/>
    <path class="st0" d="M217.1,168.8h-2.5v-10.1h2.5v10.1ZM214.3,155c0-.9.7-1.5,1.5-1.5s1.5.6,1.5,1.5-.7,1.5-1.5,1.5-1.5-.6-1.5-1.5"/>
    <path class="st0" d="M229.7,163.2v5.6h-2.5v-5.4c0-1.8-.9-2.8-2.5-2.8s-1.8.5-2.6,1.5v6.7h-2.5v-10.1h2.5v.8c.9-.7,1.9-1.2,3.1-1.2,2.7,0,4.5,2,4.5,4.9"/>
    <path class="st0" d="M239.4,165.4v-3.4c-.7-1-1.7-1.4-2.7-1.4-1.7,0-3,1.5-3,3.2s1.3,3.1,3,3.1c1,0,2-.4,2.7-1.5M241.9,168.8h-2.5v-.7c-.8.6-1.9.9-3.1.9-2.8,0-5.1-2.3-5.1-5.3s2.3-5.3,5.1-5.3,2.3.3,3.1.9v-.7h2.5v10.2Z"/>
    <path class="st0" d="M252.2,163.7c0-1.7-1.2-3.1-3-3.1s-2,.4-2.7,1.4v3.5c.7,1,1.7,1.4,2.7,1.4,1.8,0,3-1.5,3-3.2M254.7,163.7c0,2.9-2.3,5.3-5.1,5.3s-2.3-.3-3.1-.9v.7h-2.5v-15.1h2.5v5.8c.8-.6,1.9-.9,3.1-.9,2.8-.2,5.1,2.2,5.1,5.1"/>
    <rect class="st0" x="256.5" y="153.6" width="2.5" height="15.1"/>
    <path class="st0" d="M263.2,162.9h5.3c-.2-1.4-1.1-2.3-2.6-2.3-1.5,0-2.4,1-2.7,2.3M271,164.7h-7.7c.3,1.3,1.2,2.2,2.9,2.2s1.7-.3,2-.9h2.6c-.6,1.9-2.4,3-4.7,3s-5.4-2.3-5.4-5.3,2.1-5.3,5.4-5.3,4.9,2.1,4.9,5.1c0,.4,0,.8,0,1.2"/>
    <path class="st0" d="M284,166.4c2.9,0,5.1-2.2,5.1-4.9s-2.2-4.8-5.1-4.8h-2.9v9.8h2.9ZM284,154.3c4.5,0,7.7,3,7.7,7.2s-3.3,7.3-7.7,7.3h-5.4v-14.5h5.4Z"/>
    <path class="st0" d="M295.5,162.9h5.3c-.2-1.4-1.1-2.3-2.6-2.3-1.5,0-2.4,1-2.7,2.3M303.3,164.7h-7.7c.3,1.3,1.2,2.2,2.9,2.2s1.7-.3,2-.9h2.6c-.6,1.9-2.4,3-4.7,3s-5.4-2.3-5.4-5.3,2.1-5.3,5.4-5.3,4.9,2.1,4.9,5.1c0,.4,0,.8,0,1.2"/>
    <polygon class="st0" points="310.4 168.8 308.2 168.8 303.6 158.7 306.2 158.7 309.3 165.6 312.4 158.7 315 158.7 310.4 168.8"/>
    <path class="st0" d="M317.5,162.9h5.3c-.2-1.4-1.1-2.3-2.6-2.3-1.5,0-2.4,1-2.7,2.3M325.3,164.7h-7.7c.3,1.3,1.2,2.2,2.9,2.2s1.7-.3,2-.9h2.6c-.6,1.9-2.4,3-4.7,3s-5.4-2.3-5.4-5.3,2.1-5.3,5.4-5.3,4.9,2.1,4.9,5.1c0,.4,0,.8,0,1.2"/>
    <rect class="st0" x="327.3" y="153.6" width="2.5" height="15.1"/>
    <path class="st0" d="M339.6,163.7c0-1.7-1.2-3-2.9-3s-2.9,1.3-2.9,3,1.2,3.1,2.9,3.1,2.9-1.3,2.9-3.1M342,163.7c0,3.1-2.3,5.4-5.4,5.4s-5.4-2.3-5.4-5.4,2.3-5.3,5.4-5.3,5.4,2.3,5.4,5.3"/>
    <path class="st0" d="M351.7,163.7c0-1.7-1.2-3.2-3-3.2s-2,.4-2.7,1.4v3.5c.7,1,1.7,1.4,2.7,1.4,1.8.1,3-1.4,3-3.1M354.2,163.7c0,2.9-2.3,5.3-5.1,5.3s-2.3-.3-3.1-.9v5.8h-2.5v-15.1h2.5v.7c.8-.6,1.9-.9,3.1-.9,2.8-.2,5.1,2.2,5.1,5.1"/>
    <path class="st0" d="M372.7,163.2v5.6h-2.5v-5.4c0-1.8-.9-2.8-2.4-2.8s-1.6.4-2.3,1.4c.1.4.1.8.1,1.2v5.6h-2.5v-5.4c0-1.8-.9-2.8-2.4-2.8s-1.5.4-2.2,1.3v6.8h-2.5v-10.1h2.5v.7c.7-.6,1.4-1,2.7-1s2.5.6,3.3,1.5c1.1-1,2.1-1.5,3.8-1.5,2.5,0,4.4,2,4.4,4.9"/>
    <path class="st0" d="M376.8,162.9h5.3c-.2-1.4-1.1-2.3-2.6-2.3-1.5,0-2.4,1-2.7,2.3M384.6,164.7h-7.7c.3,1.3,1.2,2.2,2.9,2.2s1.7-.3,2-.9h2.6c-.6,1.9-2.4,3-4.7,3s-5.4-2.3-5.4-5.3,2.1-5.3,5.4-5.3,4.9,2.1,4.9,5.1c.1.4.1.8,0,1.2"/>
    <path class="st0" d="M396.6,163.2v5.6h-2.5v-5.4c0-1.8-.9-2.8-2.5-2.8s-1.8.5-2.6,1.5v6.7h-2.5v-10.1h2.5v.8c.9-.7,1.9-1.2,3.1-1.2,2.7,0,4.5,2,4.5,4.9"/>
    <path class="st0" d="M406.4,168.7c-1.1.3-1.6.4-2.5.4-2.4,0-3.9-1.6-3.9-4.2v-4.1h-2.3v-2.1h2.3v-3.7h2.5v3.7h3.7v2.1h-3.7v4.1c0,1.3.7,1.9,1.9,1.9s1.2-.1,1.7-.3l.3,2.2Z"/>
  </g>
  <g>
    <path class="st0" d="M241.5,54.9c-7.2-1.3-10.1-3-10.1-8.4s4.7-9.1,12.5-9.1,13,2.5,19.9,7.7l5.3-12.2c-7.8-6-15.2-9-26.4-9-17,0-28.4,9.5-28.4,23.1s7.6,19.6,21.2,22.2l12,2.3c7.3,1.3,8.9,4.9,8.8,8-.1,4.4-3.5,8-11.7,8-8.6-.2-17.8-4.1-24.5-9.7l-5.4,12.5c6.6,6.6,21.3,11,29.1,11,17.8,0,29.5-9.4,29.5-23.6s-8.2-18-22.4-21.1l-9.4-1.7Z"/>
    <rect class="st0" x="157.8" y="25.6" width="15.8" height="74.2"/>
    <rect class="st0" x="186.6" y="25.6" width="15.8" height="74.2"/>
    <path class="st0" d="M313.3,85.4c13.2,0,23.7-10,23.7-22.9s-10.5-22.4-23.7-22.4h-13.1v45.3s13.1,0,13.1,0ZM313.3,25.6c22.8,0,39.7,15.6,39.7,36.8s-16.9,37.5-39.7,37.5h-28.9V25.6h28.9Z"/>
  </g>
  <g>
    <path class="st0" d="M37.3,103.1c-19.4-12.4-27.5-37.4-18.1-59.2,9.5-21.8,33.3-32.9,55.6-27.1l6.2-14.2C50.9-6.4,18,8.3,5.2,37.8c-12.8,29.5-1.2,63.6,26,79.5l6.1-14.2Z"/>
    <path class="st0" d="M95,8.8l-6.2,14.2c19.2,12.4,27.3,37.4,17.9,59-9.4,21.7-33.1,32.8-55.4,27.2l-6.2,14.2c30,8.9,62.8-5.8,75.6-35.3,12.9-29.5,1.3-63.4-25.7-79.3"/>
  </g>
</svg>