<svg id="a" xmlns="http://www.w3.org/2000/svg" viewBox="0 0 36.61 30"><defs><style>.b{fill:#878e9a}</style></defs><path class="b" d="M34.17 20.24H23.72l-5.2 5.63-5.2-5.63H2.44A2.45 2.45 0 000 22.68v4.88C0 28.9 1.1 30 2.44 30h31.73c1.34 0 2.44-1.1 2.44-2.44v-4.88c0-1.34-1.1-2.44-2.44-2.44zm-4.51 7.95c-.67 0-1.22-.55-1.22-1.22s.55-1.22 1.22-1.22 1.22.55 1.22 1.22-.55 1.22-1.22 1.22zm3.66 0c-.67 0-1.22-.55-1.22-1.22s.55-1.22 1.22-1.22 1.22.55 1.22 1.22-.55 1.22-1.22 1.22zM11.58 0h13.86v3.12H11.58z"/><path class="b" d="M28.81 13.23h-3.36V5.79H11.58v7.44H8.22l10.29 11.14 10.3-11.14z"/></svg>