<svg id="a" xmlns="http://www.w3.org/2000/svg" viewBox="0 0 29.5 20.65"><defs><style>.g{fill:#101e35}</style></defs><g id="b" transform="translate(-6290 -6520)"><g id="c"><path id="d" class="g" d="M28.61 1.77H.88C.4 1.77 0 1.37 0 .88S.4 0 .88 0h27.73c.49 0 .89.4.89.88s-.4.89-.88.89z"/><path id="e" class="g" d="M28.61 11.21H9.44c-.49 0-.89-.4-.89-.88s.4-.89.89-.89h19.17c.49 0 .88.4.88.89s-.4.88-.88.88z"/><path id="f" class="g" d="M28.61 20.65h-9.73c-.49 0-.89-.4-.89-.89s.4-.88.89-.88h9.73c.49 0 .88.4.88.88s-.4.89-.88.89z"/></g></g></svg>