<svg xmlns="http://www.w3.org/2000/svg" viewBox="0 0 28.92 28.92"><path d="M5.78 2.89c0 1.6-1.29 2.89-2.89 2.89S0 4.49 0 2.89 1.29 0 2.89 0s2.89 1.29 2.89 2.89zm23.13 1.89V1c.01-.55-.44-1-.99-1H10.16c-.56 0-1 .45-1 1v3.78c0 .55.45 1 1 1h17.76c.55 0 1-.45 1-1zM2.89 11.57c-1.6 0-2.89 1.29-2.89 2.89s1.29 2.89 2.89 2.89 2.89-1.29 2.89-2.89-1.29-2.89-2.89-2.89zm26.02 4.78v-3.78c0-.55-.45-1-1-1H10.16c-.55 0-1 .45-1 1v3.78c0 .55.45 1 1 1h17.76c.55 0 1-.45 1-1zM2.89 23.13c-1.6 0-2.89 1.3-2.89 2.89s1.29 2.89 2.89 2.89 2.89-1.29 2.89-2.89-1.29-2.89-2.89-2.89zm26.02 4.78v-3.78c0-.55-.45-1-1-1H10.16c-.55 0-1 .45-1 1v3.78c0 .55.45 1 1 1h17.76c.55 0 1-.45 1-1z" fill="#101e36"/></svg>