<svg xmlns="http://www.w3.org/2000/svg" viewBox="0 0 383.85 124.04"><defs><style>.cls-1{fill:#941515;}</style></defs><title>stanford_up_colophon_logotype</title><g id="wordmark"><path class="cls-1" d="M173,87a7.1,7.1,0,0,1,2.13.28,4.29,4.29,0,0,1,1.5.8,3.27,3.27,0,0,1,.88,1.26,4.37,4.37,0,0,1,.3,1.65,4.22,4.22,0,0,1-.32,1.65,3.59,3.59,0,0,1-.92,1.29,4.37,4.37,0,0,1-1.5.84,6.54,6.54,0,0,1-2.07.3h-2.07v4.82h-1.74V87Zm0,6.68a3.82,3.82,0,0,0,1.32-.2,2.66,2.66,0,0,0,1-.55,2.29,2.29,0,0,0,.59-.85A2.94,2.94,0,0,0,176,91a2.45,2.45,0,0,0-.76-1.92,3.31,3.31,0,0,0-2.31-.7h-2.07v5.31Z"/><path class="cls-1" d="M184.94,98.5a3.61,3.61,0,0,0,1.43-.27,3.16,3.16,0,0,0,1.07-.76,3.23,3.23,0,0,0,.66-1.16,4.4,4.4,0,0,0,.23-1.49V87h1.74v7.83a5.77,5.77,0,0,1-.36,2.07,4.54,4.54,0,0,1-2.63,2.75,5.92,5.92,0,0,1-4.28,0,4.77,4.77,0,0,1-1.62-1.09,4.63,4.63,0,0,1-1-1.66,5.77,5.77,0,0,1-.36-2.07V87h1.74v7.83a4.38,4.38,0,0,0,.23,1.48,3.23,3.23,0,0,0,.66,1.16,2.94,2.94,0,0,0,1.07.76A3.49,3.49,0,0,0,184.94,98.5Z"/><path class="cls-1" d="M197.31,87a7.67,7.67,0,0,1,2.05.23,3.83,3.83,0,0,1,1.42.67,2.59,2.59,0,0,1,.81,1,3.73,3.73,0,0,1,.26,1.41,2.86,2.86,0,0,1-.15.92,2.67,2.67,0,0,1-.44.81,3.15,3.15,0,0,1-.76.68,4.16,4.16,0,0,1-1.06.49,3.94,3.94,0,0,1,2.14,1,2.73,2.73,0,0,1,.71,1.95,3.69,3.69,0,0,1-.3,1.5,3.41,3.41,0,0,1-.88,1.16,4.31,4.31,0,0,1-1.43.75,6.65,6.65,0,0,1-1.92.26H193.2V87Zm-2.37,1.37v4.4h2.3a4.55,4.55,0,0,0,1.29-.16,2.56,2.56,0,0,0,.89-.45,1.69,1.69,0,0,0,.53-.69,2.44,2.44,0,0,0,.17-.9,2,2,0,0,0-.68-1.67,3.51,3.51,0,0,0-2.13-.53Zm2.79,10.14a4.48,4.48,0,0,0,1.29-.17,2.4,2.4,0,0,0,.88-.49,1.86,1.86,0,0,0,.51-.73,2.61,2.61,0,0,0,.16-.94,1.9,1.9,0,0,0-.71-1.58,3.28,3.28,0,0,0-2.13-.58h-2.79V98.5Z"/><path class="cls-1" d="M212.15,98.42v1.46h-7.31V87h1.73V98.42Z"/><path class="cls-1" d="M215.83,99.88h-1.75V87h1.75Z"/><path class="cls-1" d="M225.72,89a.76.76,0,0,1-.18.21.41.41,0,0,1-.23.06.66.66,0,0,1-.36-.15c-.14-.1-.31-.22-.51-.34a5.35,5.35,0,0,0-.75-.34,3.3,3.3,0,0,0-1.06-.15,3,3,0,0,0-1,.16,2.26,2.26,0,0,0-.75.42,1.87,1.87,0,0,0-.45.64,2.06,2.06,0,0,0-.15.79,1.4,1.4,0,0,0,.26.89,2.32,2.32,0,0,0,.7.61,5,5,0,0,0,1,.44l1.14.38c.38.13.76.28,1.13.44a4.18,4.18,0,0,1,1,.63,2.72,2.72,0,0,1,.7.93,3,3,0,0,1,.27,1.35,4.44,4.44,0,0,1-.29,1.59,3.69,3.69,0,0,1-.84,1.29,4,4,0,0,1-1.36.86,5,5,0,0,1-1.83.32,5.67,5.67,0,0,1-2.29-.46,5.22,5.22,0,0,1-1.75-1.23l.5-.82a.58.58,0,0,1,.18-.17.37.37,0,0,1,.23-.07.48.48,0,0,1,.26.1,2.72,2.72,0,0,1,.34.24l.43.31a3.28,3.28,0,0,0,.56.31,3.19,3.19,0,0,0,.7.24,3.51,3.51,0,0,0,.89.1,3.41,3.41,0,0,0,1.11-.17,2.54,2.54,0,0,0,.82-.48,2.07,2.07,0,0,0,.52-.75,2.49,2.49,0,0,0,.18-1,1.67,1.67,0,0,0-.26-1,2.1,2.1,0,0,0-.7-.62,5,5,0,0,0-1-.43l-1.13-.36c-.39-.13-.77-.27-1.14-.43a3.63,3.63,0,0,1-1-.63,2.92,2.92,0,0,1-.7-1,3.51,3.51,0,0,1-.26-1.43,3.58,3.58,0,0,1,.26-1.33,3.47,3.47,0,0,1,.78-1.13,3.76,3.76,0,0,1,1.25-.79,4.49,4.49,0,0,1,1.7-.3,5.61,5.61,0,0,1,2,.34,4.71,4.71,0,0,1,1.56,1Z"/><path class="cls-1" d="M239.33,87V99.88h-1.74V94h-7v5.86h-1.74V87h1.74v5.75h7V87Z"/><path class="cls-1" d="M250.58,98.46v1.42h-8V87h8v1.42h-6.2v4.28h5v1.37h-5v4.4Z"/><path class="cls-1" d="M264.2,93.44a7.25,7.25,0,0,1-.46,2.64,5.67,5.67,0,0,1-3.3,3.34,7,7,0,0,1-2.6.46H253V87h4.82a7,7,0,0,1,2.6.46,5.88,5.88,0,0,1,2,1.31,6,6,0,0,1,1.29,2A7.17,7.17,0,0,1,264.2,93.44Zm-1.79,0a6.71,6.71,0,0,0-.32-2.13,4.64,4.64,0,0,0-.92-1.58,4,4,0,0,0-1.44-1,5,5,0,0,0-1.89-.34h-3.07V98.47h3.07a5,5,0,0,0,1.89-.34,4,4,0,0,0,1.44-1,4.54,4.54,0,0,0,.92-1.58A6.6,6.6,0,0,0,262.41,93.44Z"/><path class="cls-1" d="M275.43,87a7.72,7.72,0,0,1,2.05.23,3.78,3.78,0,0,1,1.41.67,2.53,2.53,0,0,1,.82,1,3.73,3.73,0,0,1,.26,1.41,2.86,2.86,0,0,1-.15.92,2.9,2.9,0,0,1-.44.81,3.15,3.15,0,0,1-.76.68,4.32,4.32,0,0,1-1.06.49,3.94,3.94,0,0,1,2.14,1,2.73,2.73,0,0,1,.71,1.95,3.69,3.69,0,0,1-.3,1.5,3.41,3.41,0,0,1-.88,1.16,4.31,4.31,0,0,1-1.43.75,6.65,6.65,0,0,1-1.92.26h-4.56V87Zm-2.37,1.37v4.4h2.3a4.43,4.43,0,0,0,1.28-.16,2.53,2.53,0,0,0,.9-.45,1.69,1.69,0,0,0,.53-.69,2.44,2.44,0,0,0,.17-.9,2,2,0,0,0-.68-1.67,3.51,3.51,0,0,0-2.13-.53Zm2.79,10.14a4.36,4.36,0,0,0,1.28-.17,2.45,2.45,0,0,0,.89-.49,1.86,1.86,0,0,0,.51-.73,2.61,2.61,0,0,0,.16-.94,1.9,1.9,0,0,0-.71-1.58,3.3,3.3,0,0,0-2.13-.58h-2.79V98.5Z"/><path class="cls-1" d="M287.39,94.74v5.14h-1.75V94.74L280.91,87h1.54a.52.52,0,0,1,.36.11,1,1,0,0,1,.24.29l2.95,5,.3.59c.09.19.16.37.23.56.07-.19.14-.37.23-.56s.17-.38.28-.59l2.94-5a1.13,1.13,0,0,1,.22-.28.57.57,0,0,1,.37-.12h1.54Z"/><path class="cls-1" d="M9,112.15a1,1,0,0,1-.29.34.6.6,0,0,1-.37.1.92.92,0,0,1-.47-.15c-.17-.11-.37-.22-.6-.34a5.72,5.72,0,0,0-.78-.33,2.93,2.93,0,0,0-1-.16,2.29,2.29,0,0,0-1.56.47,1.53,1.53,0,0,0-.52,1.21,1.16,1.16,0,0,0,.29.8,2.41,2.41,0,0,0,.75.54,6.38,6.38,0,0,0,1,.41c.39.12.8.25,1.21.4a10.62,10.62,0,0,1,1.21.5,4.87,4.87,0,0,1,1.06.73,3.37,3.37,0,0,1,.75,1.08,3.92,3.92,0,0,1,.28,1.54,4.81,4.81,0,0,1-.35,1.86,4.35,4.35,0,0,1-1,1.51,4.51,4.51,0,0,1-1.6,1,5.91,5.91,0,0,1-2.17.37,6.31,6.31,0,0,1-1.37-.14,7.19,7.19,0,0,1-1.32-.39,6.12,6.12,0,0,1-1.2-.6,5.09,5.09,0,0,1-1-.78l.88-1.42a.92.92,0,0,1,.29-.26.76.76,0,0,1,.38-.11,1.06,1.06,0,0,1,.57.2c.2.14.43.28.69.44a5.39,5.39,0,0,0,.9.44,3.33,3.33,0,0,0,1.24.2,2.49,2.49,0,0,0,1.63-.48,1.76,1.76,0,0,0,.57-1.43,1.41,1.41,0,0,0-.28-.89,2.47,2.47,0,0,0-.75-.57,6.4,6.4,0,0,0-1-.39c-.39-.11-.8-.23-1.21-.37A9,9,0,0,1,2.65,117a3.64,3.64,0,0,1-1-.74,3.17,3.17,0,0,1-.74-1.14,4.35,4.35,0,0,1-.29-1.69,4,4,0,0,1,1.26-2.92,4.68,4.68,0,0,1,1.53-1,5.54,5.54,0,0,1,2.07-.36,7.12,7.12,0,0,1,2.43.41,5.41,5.41,0,0,1,1.88,1.12Z"/><path class="cls-1" d="M22.43,111.79H18.19v12.09h-3V111.79H10.94v-2.42H22.43Z"/><path class="cls-1" d="M35.52,123.88H33.19a1.08,1.08,0,0,1-.64-.18,1.15,1.15,0,0,1-.36-.48l-1-2.77H25.43l-1,2.77a1.16,1.16,0,0,1-.35.46,1,1,0,0,1-.63.2H21.12l5.67-14.51h3.07Zm-5-5.51-1.57-4.44c-.09-.23-.19-.5-.29-.82a10.43,10.43,0,0,1-.3-1c-.09.38-.19.72-.29,1s-.21.59-.3.82l-1.56,4.42Z"/><path class="cls-1" d="M49.29,109.37v14.51H47.74a1.48,1.48,0,0,1-.59-.11,1.42,1.42,0,0,1-.47-.4l-7.23-9.2c0,.24,0,.47,0,.69s0,.44,0,.63v8.39H36.86V109.37h1.58l.33,0a.61.61,0,0,1,.24.07.85.85,0,0,1,.21.14,1.79,1.79,0,0,1,.22.24l7.28,9.24c0-.25,0-.5-.06-.73s0-.46,0-.68v-8.3Z"/><path class="cls-1" d="M55.35,111.72v4h5.22v2.36H55.35v5.79h-3V109.37h9.24v2.35Z"/><path class="cls-1" d="M77.54,116.62a8.1,8.1,0,0,1-.53,2.95,6.83,6.83,0,0,1-3.86,3.91,8.53,8.53,0,0,1-6.08,0,7.1,7.1,0,0,1-2.35-1.56,6.78,6.78,0,0,1-1.51-2.35,8.3,8.3,0,0,1,0-5.89,6.78,6.78,0,0,1,3.86-3.9,8.39,8.39,0,0,1,6.08,0,6.81,6.81,0,0,1,2.35,1.56A7.19,7.19,0,0,1,77,113.69,8,8,0,0,1,77.54,116.62Zm-3.07,0a6.44,6.44,0,0,0-.3-2A4.21,4.21,0,0,0,73.3,113a3.69,3.69,0,0,0-1.36-1,5.09,5.09,0,0,0-3.66,0,3.64,3.64,0,0,0-1.37,1,4.21,4.21,0,0,0-.87,1.54,6.44,6.44,0,0,0-.3,2,6.56,6.56,0,0,0,.3,2.06,4.25,4.25,0,0,0,.87,1.53,3.64,3.64,0,0,0,1.37,1,5.24,5.24,0,0,0,3.66,0,3.69,3.69,0,0,0,1.36-1,4.25,4.25,0,0,0,.87-1.53A6.56,6.56,0,0,0,74.47,116.62Z"/><path class="cls-1" d="M91.31,123.88H88.6a1.17,1.17,0,0,1-1.1-.58l-2.76-4.45a1.22,1.22,0,0,0-.37-.38,1.24,1.24,0,0,0-.61-.12h-1v5.53h-3V109.37H84.3a9.37,9.37,0,0,1,2.6.32,5,5,0,0,1,1.77.87,3.36,3.36,0,0,1,1,1.34,4.63,4.63,0,0,1,.11,3.07,3.79,3.79,0,0,1-.59,1.17,4.09,4.09,0,0,1-1,.94,4.55,4.55,0,0,1-1.3.66,3.36,3.36,0,0,1,.54.39,2.57,2.57,0,0,1,.45.53Zm-7-7.64a3.9,3.9,0,0,0,1.26-.18,2.63,2.63,0,0,0,.87-.51,2,2,0,0,0,.5-.77,2.69,2.69,0,0,0,.16-1,2,2,0,0,0-.69-1.6,3.19,3.19,0,0,0-2.08-.57H82.74v4.59Z"/><path class="cls-1" d="M105.74,116.62a8,8,0,0,1-.53,2.93,6.67,6.67,0,0,1-1.51,2.29,7.06,7.06,0,0,1-2.35,1.5,8.22,8.22,0,0,1-3,.54H92.73V109.37h5.58a8.22,8.22,0,0,1,3,.54,7.08,7.08,0,0,1,2.35,1.51,6.77,6.77,0,0,1,1.51,2.29A7.88,7.88,0,0,1,105.74,116.62Zm-3.08,0a6.54,6.54,0,0,0-.3-2.05,4.43,4.43,0,0,0-.86-1.54,3.75,3.75,0,0,0-1.37-1,4.72,4.72,0,0,0-1.82-.34H95.75v9.81h2.56a4.73,4.73,0,0,0,1.82-.33,3.75,3.75,0,0,0,1.37-1,4.48,4.48,0,0,0,.86-1.55A6.52,6.52,0,0,0,102.66,116.62Z"/><path class="cls-1" d="M118.64,121.48a3.43,3.43,0,0,0,1.31-.24,2.79,2.79,0,0,0,1-.7,3,3,0,0,0,.61-1.09,4.55,4.55,0,0,0,.21-1.44v-8.64h3V118a6.6,6.6,0,0,1-.43,2.43,5.37,5.37,0,0,1-1.21,1.9,5.51,5.51,0,0,1-1.92,1.25,6.82,6.82,0,0,1-2.55.45,6.91,6.91,0,0,1-2.56-.45,5.42,5.42,0,0,1-3.14-3.15,6.81,6.81,0,0,1-.42-2.43v-8.64h3V118a4.55,4.55,0,0,0,.21,1.44,3,3,0,0,0,.61,1.09,2.79,2.79,0,0,0,1,.7A3.45,3.45,0,0,0,118.64,121.48Z"/><path class="cls-1" d="M140,109.37v14.51h-1.55a1.48,1.48,0,0,1-.59-.11,1.42,1.42,0,0,1-.47-.4l-7.23-9.2c0,.24,0,.47,0,.69s0,.44,0,.63v8.39h-2.65V109.37h1.58l.32,0a.66.66,0,0,1,.25.07.85.85,0,0,1,.21.14,1.79,1.79,0,0,1,.22.24l7.28,9.24c0-.25-.05-.5-.06-.73s0-.46,0-.68v-8.3Z"/><path class="cls-1" d="M146.1,123.88h-3V109.37h3Z"/><path class="cls-1" d="M161.84,109.37,156,123.88h-2.72l-5.84-14.51h2.42a1,1,0,0,1,.63.19,1.07,1.07,0,0,1,.37.47l3.14,8.36c.12.32.24.66.36,1s.22.76.32,1.16c.09-.4.18-.79.28-1.16s.22-.71.34-1l3.12-8.36a1.16,1.16,0,0,1,.36-.45,1,1,0,0,1,.63-.21Z"/><path class="cls-1" d="M166.2,111.72v3.73H171v2.27H166.2v3.81h6.22v2.35h-9.24V109.37h9.24v2.35Z"/><path class="cls-1" d="M186.23,123.88h-2.71a1.17,1.17,0,0,1-1.1-.58l-2.76-4.45a1.25,1.25,0,0,0-.38-.38,1.17,1.17,0,0,0-.6-.12h-1v5.53h-3V109.37h4.56a9.37,9.37,0,0,1,2.6.32,5,5,0,0,1,1.77.87,3.45,3.45,0,0,1,1,1.34,4.63,4.63,0,0,1,.11,3.07,3.79,3.79,0,0,1-.59,1.17,4.09,4.09,0,0,1-1,.94,4.55,4.55,0,0,1-1.3.66,3.36,3.36,0,0,1,.54.39,2.93,2.93,0,0,1,.45.53Zm-7-7.64a3.9,3.9,0,0,0,1.26-.18,2.63,2.63,0,0,0,.87-.51,2,2,0,0,0,.5-.77,2.69,2.69,0,0,0,.16-1,2,2,0,0,0-.69-1.6,3.19,3.19,0,0,0-2.08-.57h-1.56v4.59Z"/><path class="cls-1" d="M195.51,112.15a1.14,1.14,0,0,1-.29.34.6.6,0,0,1-.37.1,1,1,0,0,1-.48-.15c-.17-.11-.36-.22-.59-.34a5.72,5.72,0,0,0-.78-.33,2.93,2.93,0,0,0-1-.16,2.29,2.29,0,0,0-1.56.47,1.53,1.53,0,0,0-.52,1.21,1.15,1.15,0,0,0,.28.8,2.41,2.41,0,0,0,.75.54A6.51,6.51,0,0,0,192,115c.39.12.8.25,1.21.4a10.62,10.62,0,0,1,1.21.5,4.58,4.58,0,0,1,1,.73,3.37,3.37,0,0,1,.75,1.08,3.74,3.74,0,0,1,.29,1.54,5,5,0,0,1-.35,1.86,4.5,4.5,0,0,1-1,1.51,4.55,4.55,0,0,1-1.61,1,5.82,5.82,0,0,1-2.16.37,6.46,6.46,0,0,1-1.38-.14,7.68,7.68,0,0,1-1.32-.39,6.32,6.32,0,0,1-1.19-.6,5.09,5.09,0,0,1-1-.78l.88-1.42a.92.92,0,0,1,.29-.26.76.76,0,0,1,.38-.11,1.06,1.06,0,0,1,.57.2c.2.14.43.28.69.44a5.39,5.39,0,0,0,.9.44,3.33,3.33,0,0,0,1.24.2,2.45,2.45,0,0,0,1.62-.48,1.73,1.73,0,0,0,.58-1.43,1.36,1.36,0,0,0-.29-.89,2.43,2.43,0,0,0-.74-.57,6.4,6.4,0,0,0-1-.39c-.39-.11-.8-.23-1.21-.37a9,9,0,0,1-1.21-.48,3.51,3.51,0,0,1-1-.74,3.33,3.33,0,0,1-.75-1.14,4.36,4.36,0,0,1-.28-1.69,4,4,0,0,1,1.26-2.92,4.74,4.74,0,0,1,1.52-1,5.63,5.63,0,0,1,2.08-.36,7,7,0,0,1,2.42.41,5.45,5.45,0,0,1,1.89,1.12Z"/><path class="cls-1" d="M201.69,123.88h-3V109.37h3Z"/><path class="cls-1" d="M215,111.79h-4.24v12.09h-3V111.79h-4.24v-2.42H215Z"/><path class="cls-1" d="M223.37,118.3v5.58h-3V118.3l-5.27-8.93h2.64a.92.92,0,0,1,.62.19,1.36,1.36,0,0,1,.38.47l2.38,4.57.43.86c.13.27.25.54.35.8.09-.26.2-.53.32-.8s.26-.56.42-.86L225,110a1.49,1.49,0,0,1,.36-.45.9.9,0,0,1,.62-.21h2.66Z"/><path class="cls-1" d="M238.79,109.37a8.49,8.49,0,0,1,2.57.35,5,5,0,0,1,1.79,1,3.89,3.89,0,0,1,1,1.48,5,5,0,0,1,.34,1.87,5.34,5.34,0,0,1-.35,2,4,4,0,0,1-1.06,1.53,5,5,0,0,1-1.79,1,8.06,8.06,0,0,1-2.53.35h-1.9v5h-3V109.37Zm0,7.22a2.71,2.71,0,0,0,2.06-.68,2.55,2.55,0,0,0,.66-1.86,2.8,2.8,0,0,0-.17-1,1.87,1.87,0,0,0-.5-.76,2.3,2.3,0,0,0-.84-.49,4,4,0,0,0-1.21-.17h-1.9v4.94Z"/><path class="cls-1" d="M258,123.88h-2.71a1.16,1.16,0,0,1-1.1-.58l-2.76-4.45a1.25,1.25,0,0,0-.38-.38,1.2,1.2,0,0,0-.6-.12h-1v5.53h-3V109.37H251a9.37,9.37,0,0,1,2.6.32,5,5,0,0,1,1.77.87,3.45,3.45,0,0,1,1,1.34,4.63,4.63,0,0,1,.11,3.07,3.79,3.79,0,0,1-.59,1.17,4.09,4.09,0,0,1-1,.94,4.55,4.55,0,0,1-1.3.66,2.83,2.83,0,0,1,1,.92Zm-7-7.64a3.9,3.9,0,0,0,1.26-.18,2.63,2.63,0,0,0,.87-.51,2.09,2.09,0,0,0,.5-.77,2.69,2.69,0,0,0,.16-1,2,2,0,0,0-.69-1.6,3.19,3.19,0,0,0-2.08-.57h-1.56v4.59Z"/><path class="cls-1" d="M262.44,111.72v3.73h4.84v2.27h-4.84v3.81h6.22v2.35h-9.24V109.37h9.24v2.35Z"/><path class="cls-1" d="M278.76,112.15a1.14,1.14,0,0,1-.29.34.6.6,0,0,1-.37.1,1,1,0,0,1-.48-.15c-.17-.11-.37-.22-.59-.34a5.72,5.72,0,0,0-.78-.33,3,3,0,0,0-1-.16,2.26,2.26,0,0,0-1.56.47,1.53,1.53,0,0,0-.52,1.21,1.15,1.15,0,0,0,.28.8,2.41,2.41,0,0,0,.75.54,6.17,6.17,0,0,0,1.06.41c.39.12.79.25,1.21.4a11.43,11.43,0,0,1,1.21.5,4.58,4.58,0,0,1,1.05.73,3.37,3.37,0,0,1,.75,1.08,3.74,3.74,0,0,1,.29,1.54,5,5,0,0,1-.35,1.86,4.5,4.5,0,0,1-1,1.51,4.55,4.55,0,0,1-1.61,1,5.86,5.86,0,0,1-2.16.37,6.46,6.46,0,0,1-1.38-.14,7.43,7.43,0,0,1-1.32-.39,6.32,6.32,0,0,1-1.19-.6,4.81,4.81,0,0,1-1-.78l.88-1.42a.92.92,0,0,1,.29-.26.73.73,0,0,1,.38-.11,1.06,1.06,0,0,1,.57.2c.2.14.43.28.69.44a5.39,5.39,0,0,0,.9.44,3.33,3.33,0,0,0,1.24.2,2.45,2.45,0,0,0,1.62-.48,1.76,1.76,0,0,0,.58-1.43,1.36,1.36,0,0,0-.29-.89,2.55,2.55,0,0,0-.74-.57,6.4,6.4,0,0,0-1.05-.39c-.4-.11-.8-.23-1.21-.37a8.46,8.46,0,0,1-1.21-.48,3.39,3.39,0,0,1-1.05-.74,3.33,3.33,0,0,1-.75-1.14,4.36,4.36,0,0,1-.28-1.69,3.9,3.9,0,0,1,.32-1.57,4,4,0,0,1,.94-1.35,4.74,4.74,0,0,1,1.52-1,5.6,5.6,0,0,1,2.08-.36,7,7,0,0,1,2.42.41,5.45,5.45,0,0,1,1.89,1.12Z"/><path class="cls-1" d="M289.78,112.15a1.14,1.14,0,0,1-.29.34.6.6,0,0,1-.37.1,1,1,0,0,1-.48-.15c-.17-.11-.36-.22-.59-.34a5.72,5.72,0,0,0-.78-.33,3,3,0,0,0-1-.16,2.27,2.27,0,0,0-1.56.47,1.53,1.53,0,0,0-.52,1.21,1.15,1.15,0,0,0,.28.8,2.41,2.41,0,0,0,.75.54,6.51,6.51,0,0,0,1.06.41c.39.12.79.25,1.21.4a10.62,10.62,0,0,1,1.21.5,4.58,4.58,0,0,1,1.05.73,3.37,3.37,0,0,1,.75,1.08,3.74,3.74,0,0,1,.29,1.54,5,5,0,0,1-.35,1.86,4.5,4.5,0,0,1-1,1.51,4.55,4.55,0,0,1-1.61,1,5.82,5.82,0,0,1-2.16.37,6.46,6.46,0,0,1-1.38-.14,7.68,7.68,0,0,1-1.32-.39,6.32,6.32,0,0,1-1.19-.6,4.81,4.81,0,0,1-1-.78l.88-1.42a.92.92,0,0,1,.29-.26.76.76,0,0,1,.38-.11,1.06,1.06,0,0,1,.57.2c.2.14.43.28.69.44a5.39,5.39,0,0,0,.9.44,3.33,3.33,0,0,0,1.24.2,2.45,2.45,0,0,0,1.62-.48,1.73,1.73,0,0,0,.58-1.43,1.36,1.36,0,0,0-.29-.89,2.43,2.43,0,0,0-.74-.57,6.4,6.4,0,0,0-1-.39c-.39-.11-.8-.23-1.21-.37a8.46,8.46,0,0,1-1.21-.48,3.51,3.51,0,0,1-1.05-.74,3.33,3.33,0,0,1-.75-1.14,4.36,4.36,0,0,1-.28-1.69,4,4,0,0,1,1.26-2.92,4.74,4.74,0,0,1,1.52-1,5.63,5.63,0,0,1,2.08-.36,7,7,0,0,1,2.42.41,5.45,5.45,0,0,1,1.89,1.12Z"/></g><g id="logo"><path class="cls-1" d="M354.25,6h-6V0h6Zm0,3h-6v6h6Zm0,36.71h-6v6h6Zm0,9.05h-6v6h6Zm-9.14-9.05h-6v6h6Zm-9.14,0h-6v6h6Zm9.14,9.05h-6v6h6Zm9.14,18h-6v6h6Zm0,9.18h-6v6h6Zm-9.14-9.18h-6v6h6Zm-9.14,0h-6v6h6Zm9.14,9.18h-6v6h6ZM354.25,18h-6v6h6Zm11.54,36.78h-6v6h6Zm0,9h-6v6h6Zm0,9h-6v6h6Zm9-9h-6v6h6Zm9,0h-6v6h6Zm0,18.16h-6v6h6Zm-9-9.18h-6v6h6Zm-9-54.74h-6v6h6Zm0,18.73h-6v6h6ZM358,9h-2.16V124H358Z"/></g></svg>