<svg width="35" height="30" viewBox="0 0 35 30" fill="none" xmlns="http://www.w3.org/2000/svg">
<g clip-path="url(#clip0_601_1219)">
<path d="M1.13226 3.63873H12.4839M25.0839 3.63873H33.9097M1.13226 26.3613H18.1742M30.7742 26.3613H33.9097M0.483871 15H3.61936M16.2194 15H33.2613M18.7839 0.483887C17.0419 0.483887 15.629 1.89679 15.629 3.63873C15.629 5.38066 17.0419 6.79356 18.7839 6.79356C20.5258 6.79356 21.9387 5.38066 21.9387 3.63873C21.9387 1.89679 20.5258 0.483887 18.7839 0.483887ZM24.4742 23.1968C22.7323 23.1968 21.3194 24.6097 21.3194 26.3516C21.3194 28.0936 22.7323 29.5065 24.4742 29.5065C26.2161 29.5065 27.629 28.0936 27.629 26.3516C27.629 24.6097 26.2161 23.1968 24.4742 23.1968ZM9.91936 11.8452C8.17742 11.8452 6.76452 13.2581 6.76452 15C6.76452 16.742 8.17742 18.1549 9.91936 18.1549C11.6613 18.1549 13.0742 16.742 13.0742 15C13.0742 13.2581 11.6613 11.8452 9.91936 11.8452Z" stroke="#F4B17A" stroke-width="2" stroke-miterlimit="10" stroke-linecap="round"/>
</g>
<defs>
<clipPath id="clip0_601_1219">
<rect width="34.3936" height="30" fill="white"/>
</clipPath>
</defs>
</svg>
