<svg width="25" height="31" viewBox="0 0 25 31" fill="none" xmlns="http://www.w3.org/2000/svg">
<g clip-path="url(#clip0_590_432)">
<mask id="path-1-inside-1_590_432" fill="white">
<path d="M4.99997 14.1919V7.96967C4.99997 3.67634 8.30489 0.191895 12.377 0.191895C16.4492 0.191895 19.7541 3.67634 19.7541 7.96967"/>
</mask>
<path d="M2.99997 14.1919C2.99997 15.2965 3.8954 16.1919 4.99997 16.1919C6.10454 16.1919 6.99997 15.2965 6.99997 14.1919H2.99997ZM17.7541 7.96967C17.7541 9.07424 18.6495 9.96967 19.7541 9.96967C20.8586 9.96967 21.7541 9.07424 21.7541 7.96967H17.7541ZM6.99997 14.1919V7.96967H2.99997V14.1919H6.99997ZM6.99997 7.96967C6.99997 4.67991 9.50782 2.19189 12.377 2.19189V-1.80811C7.10195 -1.80811 2.99997 2.67277 2.99997 7.96967H6.99997ZM12.377 2.19189C15.2462 2.19189 17.7541 4.67991 17.7541 7.96967H21.7541C21.7541 2.67277 17.6521 -1.80811 12.377 -1.80811V2.19189Z" fill="#020C19" mask="url(#path-1-inside-1_590_432)"/>
<path d="M13 20V24.4262" stroke="#020C19" stroke-width="2" stroke-linecap="round"/>
<path d="M1 14.5H24V29.5H1V14.5Z" stroke="#020C19" stroke-width="2"/>
</g>
<defs>
<clipPath id="clip0_590_432">
<rect width="25" height="31" fill="white"/>
</clipPath>
</defs>
</svg>
