<svg width="38" height="32" viewBox="0 0 38 32" fill="none" xmlns="http://www.w3.org/2000/svg">
<g clip-path="url(#clip0_599_1169)">
<path d="M14.4947 2.18356C18.498 2.18356 21.7538 5.4393 21.7538 9.44257C21.7538 13.4459 18.498 16.7016 14.4947 16.7016C10.4915 16.7016 7.23572 13.4459 7.23572 9.44257C7.23572 5.4393 10.4816 2.18356 14.4947 2.18356ZM14.4947 1.19995C9.94064 1.19995 6.24228 4.88848 6.24228 9.44257C6.24228 13.9967 9.9308 17.6852 14.4849 17.6852C19.039 17.6852 22.7275 13.9967 22.7275 9.44257C22.7275 4.88848 19.039 1.19995 14.4947 1.19995Z" stroke="#F4B17A"/>
<path d="M27.5079 30.7083C27.5079 23.5181 21.6751 17.6853 14.4849 17.6853C7.29474 17.6853 1.47179 23.5181 1.47179 30.7083" stroke="#F4B17A" stroke-width="2" stroke-linecap="round"/>
<path d="M27.7734 9.44252L30.7242 12.3933L36.6259 6.4917" stroke="#F4B17A" stroke-linecap="round"/>
</g>
<defs>
<clipPath id="clip0_599_1169">
<rect width="38" height="32" fill="white"/>
</clipPath>
</defs>
</svg>
